<?xml version="1.0" encoding="UTF-8" standalone="no"?>
<svg
   xmlns:dc="http://purl.org/dc/elements/1.1/"
   xmlns:cc="http://creativecommons.org/ns#"
   xmlns:rdf="http://www.w3.org/1999/02/22-rdf-syntax-ns#"
   xmlns:svg="http://www.w3.org/2000/svg"
   xmlns="http://www.w3.org/2000/svg"
   xmlns:sodipodi="http://sodipodi.sourceforge.net/DTD/sodipodi-0.dtd"
   xmlns:inkscape="http://www.inkscape.org/namespaces/inkscape"
   width="7.25in"
   height="10.5in"
   viewBox="0 0 184.15 266.7"
   version="1.1"
   id="svg8"
   inkscape:version="1.0 (4035a4fb49, 2020-05-01)"
   sodipodi:docname="Void Handbook Cover Variant.svg">
  <defs
     id="defs2">
    <rect
       x="755.46005"
       y="68.480918"
       width="89.564156"
       height="31.686324"
       id="rect1019" />
    <rect
       x="240.05576"
       y="94.264318"
       width="7.621028"
       height="13.828729"
       id="rect10363" />
    <rect
       x="56.332958"
       y="210.26282"
       width="95.945813"
       height="33.523142"
       id="rect10357" />
    <clipPath
       id="clipPath901"
       clipPathUnits="userSpaceOnUse">
      <path
         id="path899"
         clip-rule="evenodd"
         d="M 0,0.028 H 611.971 V 791.999 H 0 Z" />
    </clipPath>
    <rect
       id="rect10357-9"
       height="33.523144"
       width="95.945816"
       y="210.26282"
       x="56.332958" />
    <rect
       id="rect10376"
       height="33.523144"
       width="95.945816"
       y="210.26282"
       x="56.332958" />
    <rect
       id="rect10357-2"
       height="33.523144"
       width="95.945816"
       y="210.26282"
       x="56.332958" />
    <rect
       id="rect10405"
       height="33.523144"
       width="95.945816"
       y="210.26282"
       x="56.332958" />
    <rect
       id="rect10357-8"
       height="33.523144"
       width="95.945816"
       y="210.26282"
       x="56.332958" />
    <rect
       id="rect10461"
       height="33.523144"
       width="95.945816"
       y="210.26282"
       x="56.332958" />
    <rect
       x="56.332958"
       y="210.26282"
       width="119.88216"
       height="128.46911"
       id="rect10357-8-9" />
    <rect
       x="56.332958"
       y="210.26282"
       width="95.945816"
       height="33.523144"
       id="rect10492" />
    <rect
       x="56.332958"
       y="210.26282"
       width="95.945816"
       height="33.523144"
       id="rect10357-8-0" />
    <rect
       x="56.332958"
       y="210.26282"
       width="95.945816"
       height="33.523144"
       id="rect10523" />
    <rect
       x="56.332958"
       y="210.26282"
       width="95.945816"
       height="33.523144"
       id="rect10357-8-3" />
    <rect
       x="56.332958"
       y="210.26282"
       width="95.945816"
       height="33.523144"
       id="rect884" />
    <rect
       id="rect10357-8-9-6"
       height="128.46912"
       width="119.88216"
       y="210.26282"
       x="56.332958" />
    <rect
       id="rect887"
       height="128.46912"
       width="119.88216"
       y="210.26282"
       x="56.332958" />
    <rect
       x="56.332958"
       y="210.26282"
       width="95.945816"
       height="33.523144"
       id="rect10357-8-36" />
    <rect
       x="56.332958"
       y="210.26282"
       width="95.945816"
       height="33.523144"
       id="rect884-0" />
    <rect
       id="rect10357-8-9-62"
       height="128.46912"
       width="119.88216"
       y="210.26282"
       x="56.332958" />
    <rect
       id="rect887-6"
       height="128.46912"
       width="119.88216"
       y="210.26282"
       x="56.332958" />
    <rect
       id="rect10357-8-3-2"
       height="138.2951"
       width="65.245731"
       y="210.26282"
       x="56.332958" />
    <rect
       id="rect1038"
       height="33.523144"
       width="95.945816"
       y="210.26282"
       x="56.332958" />
    <rect
       id="rect10357-8-3-9"
       height="33.523144"
       width="95.945816"
       y="210.26282"
       x="56.332958" />
    <rect
       id="rect1071"
       height="33.523144"
       width="95.945816"
       y="210.26282"
       x="56.332958" />
    <rect
       x="56.332958"
       y="210.26282"
       width="119.88216"
       height="128.46912"
       id="rect10357-8-9-6-7" />
    <rect
       x="56.332958"
       y="210.26282"
       width="119.88216"
       height="128.46912"
       id="rect1074" />
    <rect
       x="56.332958"
       y="210.26282"
       width="65.245728"
       height="138.2951"
       id="rect10357-8-3-2-3" />
    <rect
       x="56.332958"
       y="210.26282"
       width="65.245728"
       height="138.2951"
       id="rect1077" />
    <rect
       x="56.332958"
       y="210.26282"
       width="101.19081"
       height="37.5833"
       id="rect10357-8-3-2-36" />
    <rect
       x="56.332958"
       y="210.26282"
       width="65.245728"
       height="138.2951"
       id="rect1222" />
    <rect
       x="56.332958"
       y="210.26282"
       width="95.945816"
       height="33.523144"
       id="rect10357-8-3-9-6" />
    <rect
       x="56.332958"
       y="210.26282"
       width="95.945816"
       height="33.523144"
       id="rect1330" />
    <rect
       id="rect10357-8-9-6-7-3"
       height="102.4621"
       width="192.92079"
       y="210.26282"
       x="56.332958" />
    <rect
       id="rect1333"
       height="128.46912"
       width="119.88216"
       y="210.26282"
       x="56.332958" />
    <rect
       id="rect10357-8-3-2-36-2"
       height="37.583302"
       width="101.19081"
       y="210.26282"
       x="56.332958" />
    <rect
       id="rect1336"
       height="37.583302"
       width="101.19081"
       y="210.26282"
       x="56.332958" />
    <rect
       x="56.332958"
       y="210.26282"
       width="62.313016"
       height="93.176449"
       id="rect10357-8-3-2-36-2-4" />
    <rect
       x="56.332958"
       y="210.26282"
       width="101.19081"
       height="37.583302"
       id="rect1464" />
    <rect
       id="rect10357-8-3-9-6-2"
       height="33.523144"
       width="95.945816"
       y="210.26282"
       x="56.332958" />
    <rect
       id="rect1782"
       height="33.523144"
       width="95.945816"
       y="210.26282"
       x="56.332958" />
    <rect
       x="56.332958"
       y="210.26282"
       width="192.92079"
       height="102.4621"
       id="rect10357-8-9-6-7-3-0" />
    <rect
       x="56.332958"
       y="210.26282"
       width="192.92079"
       height="102.4621"
       id="rect1785" />
    <rect
       x="56.332958"
       y="210.26282"
       width="101.19081"
       height="37.583302"
       id="rect10357-8-3-2-36-2-6" />
    <rect
       x="56.332958"
       y="210.26282"
       width="101.19081"
       height="37.583302"
       id="rect1788" />
    <rect
       id="rect10357-8-3-2-36-2-4-8"
       height="93.176453"
       width="62.313015"
       y="210.26282"
       x="56.332958" />
    <rect
       id="rect1791"
       height="93.176453"
       width="62.313015"
       y="210.26282"
       x="56.332958" />
    <rect
       x="56.332958"
       y="210.26282"
       width="95.945816"
       height="33.523144"
       id="rect10357-8-3-9-7" />
    <rect
       x="56.332958"
       y="210.26282"
       width="95.945816"
       height="33.523144"
       id="rect2012" />
    <rect
       id="rect10357-8-9-6-7-2"
       height="128.46912"
       width="119.88216"
       y="210.26282"
       x="56.332958" />
    <rect
       id="rect2015"
       height="128.46912"
       width="119.88216"
       y="210.26282"
       x="56.332958" />
    <rect
       id="rect10357-8-3-2-36-26"
       height="37.583302"
       width="101.19081"
       y="210.26282"
       x="56.332958" />
    <rect
       id="rect2018"
       height="37.583302"
       width="101.19081"
       y="210.26282"
       x="56.332958" />
    <rect
       x="56.332958"
       y="210.26282"
       width="95.945816"
       height="33.523144"
       id="rect10357-8-3-9-5" />
    <rect
       x="56.332958"
       y="210.26282"
       width="95.945816"
       height="33.523144"
       id="rect2145" />
    <rect
       id="rect10357-8-9-6-7-9"
       height="128.46912"
       width="119.88216"
       y="210.26282"
       x="56.332958" />
    <rect
       id="rect2148"
       height="128.46912"
       width="119.88216"
       y="210.26282"
       x="56.332958" />
    <rect
       id="rect10357-8-3-2-36-7"
       height="37.583302"
       width="101.19081"
       y="210.26282"
       x="56.332958" />
    <rect
       id="rect2151"
       height="37.583302"
       width="101.19081"
       y="210.26282"
       x="56.332958" />
    <rect
       x="56.332958"
       y="210.26282"
       width="95.945816"
       height="33.523144"
       id="rect10357-8-3-9-3" />
    <rect
       x="56.332958"
       y="210.26282"
       width="95.945816"
       height="33.523144"
       id="rect1049" />
    <rect
       id="rect10357-8-9-6-7-6"
       height="128.46912"
       width="119.88216"
       y="210.26282"
       x="56.332958" />
    <rect
       id="rect1052"
       height="128.46912"
       width="119.88216"
       y="210.26282"
       x="56.332958" />
    <rect
       id="rect10357-8-3-2-36-75"
       height="37.583302"
       width="101.19081"
       y="210.26282"
       x="56.332958" />
    <rect
       id="rect1055"
       height="37.583302"
       width="101.19081"
       y="210.26282"
       x="56.332958" />
    <rect
       id="rect10357-8-3-9-7-3"
       height="33.523144"
       width="95.945816"
       y="210.26282"
       x="56.332958" />
    <rect
       id="rect1058"
       height="33.523144"
       width="95.945816"
       y="210.26282"
       x="56.332958" />
    <rect
       x="56.332958"
       y="210.26282"
       width="119.88216"
       height="128.46912"
       id="rect10357-8-9-6-7-2-5" />
    <rect
       x="56.332958"
       y="210.26282"
       width="119.88216"
       height="128.46912"
       id="rect1061" />
    <rect
       x="56.332958"
       y="210.26282"
       width="101.19081"
       height="37.583302"
       id="rect10357-8-3-2-36-26-6" />
    <rect
       x="56.332958"
       y="210.26282"
       width="101.19081"
       height="37.583302"
       id="rect1064" />
    <rect
       id="rect10357-8-3-9-5-2"
       height="33.523144"
       width="95.945816"
       y="210.26282"
       x="56.332958" />
    <rect
       id="rect1067"
       height="33.523144"
       width="95.945816"
       y="210.26282"
       x="56.332958" />
    <rect
       x="56.332958"
       y="210.26282"
       width="119.88216"
       height="128.46912"
       id="rect10357-8-9-6-7-9-9" />
    <rect
       x="56.332958"
       y="210.26282"
       width="119.88216"
       height="128.46912"
       id="rect1070" />
    <rect
       x="56.332958"
       y="210.26282"
       width="101.19081"
       height="37.583302"
       id="rect10357-8-3-2-36-7-1" />
    <rect
       x="56.332958"
       y="210.26282"
       width="101.19081"
       height="37.583302"
       id="rect1073" />
    <rect
       x="56.332958"
       y="210.26282"
       width="95.945816"
       height="33.523144"
       id="rect10357-8-3-9-7-3-1" />
    <rect
       x="56.332958"
       y="210.26282"
       width="95.945816"
       height="33.523144"
       id="rect1464-0" />
    <rect
       id="rect10357-8-9-6-7-2-5-6"
       height="128.46912"
       width="119.88216"
       y="210.26282"
       x="56.332958" />
    <rect
       id="rect1467"
       height="128.46912"
       width="119.88216"
       y="210.26282"
       x="56.332958" />
    <rect
       id="rect10357-8-3-2-36-26-6-3"
       height="37.583302"
       width="101.19081"
       y="210.26282"
       x="56.332958" />
    <rect
       id="rect1470"
       height="37.583302"
       width="101.19081"
       y="210.26282"
       x="56.332958" />
    <rect
       id="rect10357-8-3-9-7-3-1-7"
       height="33.523144"
       width="95.945816"
       y="210.26282"
       x="56.332958" />
    <rect
       id="rect1599"
       height="33.523144"
       width="95.945816"
       y="210.26282"
       x="56.332958" />
    <rect
       x="56.332958"
       y="210.26282"
       width="119.88216"
       height="128.46912"
       id="rect10357-8-9-6-7-2-5-6-4" />
    <rect
       x="56.332958"
       y="210.26282"
       width="119.88216"
       height="128.46912"
       id="rect1602" />
    <rect
       x="56.332958"
       y="210.26282"
       width="101.19081"
       height="37.583302"
       id="rect10357-8-3-2-36-26-6-3-5" />
    <rect
       x="56.332958"
       y="210.26282"
       width="101.19081"
       height="37.583302"
       id="rect1605" />
    <rect
       id="rect10357-8-9-6-7-2-5-4"
       height="128.46912"
       width="119.88216"
       y="210.26282"
       x="56.332958" />
    <rect
       id="rect1751"
       height="128.46912"
       width="119.88216"
       y="210.26282"
       x="56.332958" />
    <rect
       x="56.332958"
       y="210.26282"
       width="95.945816"
       height="33.523144"
       id="rect10357-8-3-9-7-3-14" />
    <rect
       x="56.332958"
       y="210.26282"
       width="95.945816"
       height="33.523144"
       id="rect1787" />
    <rect
       id="rect10357-8-9-6-7-2-5-9"
       height="128.46912"
       width="119.88216"
       y="210.26282"
       x="56.332958" />
    <rect
       id="rect1790"
       height="128.46912"
       width="119.88216"
       y="210.26282"
       x="56.332958" />
    <rect
       id="rect10357-8-3-2-36-26-6-2"
       height="37.583302"
       width="101.19081"
       y="210.26282"
       x="56.332958" />
    <rect
       id="rect1793"
       height="37.583302"
       width="101.19081"
       y="210.26282"
       x="56.332958" />
  </defs>
  <sodipodi:namedview
     id="base"
     pagecolor="#696969"
     bordercolor="#666666"
     borderopacity="1.0"
     inkscape:pageopacity="0"
     inkscape:pageshadow="2"
     inkscape:zoom="0.17177798"
     inkscape:cx="2210.6687"
     inkscape:cy="1888.7172"
     inkscape:document-units="mm"
     inkscape:current-layer="layer1"
     inkscape:document-rotation="0"
     showgrid="false"
     inkscape:window-width="1912"
     inkscape:window-height="1045"
     inkscape:window-x="4"
     inkscape:window-y="31"
     inkscape:window-maximized="0"
     inkscape:snap-bbox="true"
     inkscape:bbox-paths="true"
     inkscape:bbox-nodes="true"
     inkscape:snap-bbox-midpoints="true"
     inkscape:snap-bbox-edge-midpoints="true"
     units="in"
     inkscape:snap-object-midpoints="true" />
  <metadata
     id="metadata5">
    <rdf:RDF>
      <cc:Work
         rdf:about="">
        <dc:format>image/svg+xml</dc:format>
        <dc:type
           rdf:resource="http://purl.org/dc/dcmitype/StillImage" />
        <dc:title />
      </cc:Work>
    </rdf:RDF>
  </metadata>
  <g
     inkscape:label="Capa 1"
     inkscape:groupmode="layer"
     id="layer1">
    <text
       xml:space="preserve"
       id="text10361"
       style="fill:black;fill-opacity:1;line-height:1.25;stroke:none;font-family:sans-serif;font-style:normal;font-weight:normal;font-size:10.58333333px;white-space:pre;shape-inside:url(#rect10363);" />
    <text
       xml:space="preserve"
       id="text1017"
       style="fill:black;fill-opacity:1;stroke:none;font-family:sans-serif;font-style:normal;font-weight:normal;font-size:10.58333333px;line-height:1.25;letter-spacing:0px;word-spacing:0px;white-space:pre;shape-inside:url(#rect1019);" />
    <rect
       style="fill:#4d4d4d;stroke-width:0.264583"
       id="rect10310-7-6"
       width="215.89012"
       height="279.39011"
       x="293.25601"
       y="294.78949"
       inkscape:export-xdpi="96"
       inkscape:export-ydpi="96" />
    <text
       transform="translate(256.92215,328.71949)"
       style="font-style:normal;font-weight:normal;font-size:7.05556px;line-height:1.25;font-family:sans-serif;white-space:pre;shape-inside:url(#rect10357-8-3-9);fill:#000000;fill-opacity:1;stroke:none;"
       id="text10355-7-5-1"
       xml:space="preserve"
       inkscape:export-xdpi="96"
       inkscape:export-ydpi="96"><tspan
         x="56.332031"
         y="216.68275"><tspan
           style="font-style:normal;font-variant:normal;font-weight:normal;font-stretch:normal;font-size:7.05556px;font-family:'Libre Caslon Display';-inkscape-font-specification:'Libre Caslon Display';fill:#ffffff">Void Handbook</tspan></tspan></text>
    <path
       style="fill:none;stroke:#ffffff;stroke-width:0.5;stroke-linecap:butt;stroke-linejoin:miter;stroke-miterlimit:4;stroke-dasharray:none;stroke-opacity:1"
       d="M 360.12861,561.95056 V 527.55815"
       id="path10481-3-2"
       inkscape:export-xdpi="96"
       inkscape:export-ydpi="96" />
    <text
       xml:space="preserve"
       id="text10355-7-2-5-9"
       style="font-style:normal;font-weight:normal;font-size:26.4583px;line-height:1.25;font-family:sans-serif;white-space:pre;shape-inside:url(#rect10357-8-9-6-7);fill:#000000;fill-opacity:1;stroke:none;"
       transform="translate(285.57991,122.17939)"
       x="57.931183"
       y="0"
       inkscape:export-xdpi="96"
       inkscape:export-ydpi="96"><tspan
         x="74.353689"
         y="233.67307"><tspan
           style="font-style:normal;font-variant:normal;font-weight:normal;font-stretch:normal;font-size:21.5194px;font-family:'Libre Caslon Text';-inkscape-font-specification:'Libre Caslon Text';text-align:center;text-anchor:middle;fill:#ffffff">ENTER
</tspan></tspan><tspan
         x="90.105877"
         y="266.74594"><tspan
           style="font-style:normal;font-variant:normal;font-weight:normal;font-stretch:normal;font-size:21.5194px;font-family:'Libre Caslon Text';-inkscape-font-specification:'Libre Caslon Text';text-align:center;text-anchor:middle;fill:#ffffff">THE</tspan></tspan></text>
    <g
       transform="matrix(0.98638135,0,0,0.98638135,350.72908,372.84006)"
       id="g10308-3-6-3"
       inkscape:export-xdpi="96"
       inkscape:export-ydpi="96">
      <path
         d="m 52.393726,33.628591 c -5.829269,0.01238 -11.507642,1.854006 -16.234586,5.265253 l 6.324252,6.324251 c 2.983825,-1.825253 6.412518,-2.793929 9.910334,-2.799877 10.523116,-2.1e-5 19.053793,8.530655 19.053772,19.053773 -0.0084,3.49657 -0.978842,6.923403 -2.804983,9.905228 l 6.336239,6.336239 c 3.410162,-4.729679 5.249439,-10.4106 5.258374,-16.241467 0,-15.377484 -12.46592,-27.8434 -27.843402,-27.8434 z"
         fill="#abc2ab"
         id="path10244-6-2-1"
         style="stroke:#ffffff;stroke-width:0.811045;stroke-miterlimit:4;stroke-dasharray:none" />
      <path
         d="m 68.62831,84.050138 -6.324253,-6.32425 c -2.983826,1.825252 -6.412519,2.793931 -9.910331,2.799876 -10.523119,2.1e-5 -19.053795,-8.530656 -19.053774,-19.053773 0.0084,-3.49657 0.978838,-6.923404 2.804983,-9.905227 l -6.336242,-6.336238 c -3.410166,4.729675 -5.249434,10.410598 -5.258368,16.241465 0,15.377483 12.465916,27.843401 27.843401,27.843401 5.829268,-0.01238 11.507639,-1.854005 16.234584,-5.265254 z"
         fill="#478061"
         id="path10246-7-9-9"
         style="stroke:#ffffff;stroke-width:0.811045;stroke-miterlimit:4;stroke-dasharray:none" />
      <circle
         fill="#abc2ab"
         cx="52.389275"
         cy="61.471992"
         r="8.8644295"
         id="circle10248-5-1-4"
         style="stroke:#ffffff;stroke-width:0.811045;stroke-miterlimit:4;stroke-dasharray:none" />
      <path
         d="m 26.61672,66.65134 c -0.303627,0.216873 -0.580143,0.32531 -0.829549,0.32531 h -1.073535 c -0.151813,0 -0.271094,-0.02711 -0.357844,-0.08133 -0.08675,-0.05422 -0.157233,-0.135549 -0.211453,-0.243985 L 18.646546,56.436504 c -0.02169,-0.02169 -0.03253,-0.0488 -0.03253,-0.08133 v -0.0976 c 0,-0.108437 0.03795,-0.195187 0.113861,-0.260251 0.08675,-0.07591 0.222297,-0.113858 0.406642,-0.113858 h 6.685186 c 0.357843,0 0.590984,0.108437 0.699421,0.325312 l 3.38326,6.52253 9.482875,-6.52253 c 0.31447,-0.216875 0.645206,-0.325312 0.992208,-0.325312 h 1.057265 c 0.140971,0 0.211457,0.05964 0.211457,0.178922 0,0.09759 -0.08675,0.216874 -0.260248,0.357843 z"
         fill="#000000"
         id="path10250-3-2-7"
         style="fill:#000000;stroke:#ffffff;stroke-width:0.811045;stroke-miterlimit:4;stroke-dasharray:none" />
      <path
         d="m 41.370181,66.97665 c -0.563876,0 -1.062689,-0.08675 -1.496438,-0.260249 -0.433754,-0.184343 -0.797022,-0.43375 -1.089804,-0.748221 -0.292782,-0.31447 -0.515079,-0.683157 -0.66689,-1.106061 -0.15181,-0.433753 -0.227716,-0.900036 -0.227716,-1.398852 0,-0.639781 0.108438,-1.26872 0.325312,-1.886813 0.216875,-0.618096 0.515079,-1.209082 0.894613,-1.77296 0.390373,-0.563876 0.84581,-1.084377 1.366311,-1.561502 0.531344,-0.477127 1.106065,-0.889191 1.724161,-1.23619 0.628941,-0.347 1.290411,-0.618094 1.98441,-0.813283 0.694004,-0.206031 1.404272,-0.309046 2.130802,-0.309046 h 7.970171 c 0.574722,0 1.078957,0.08675 1.512713,0.260248 0.444592,0.173501 0.813278,0.417487 1.106061,0.731957 0.292783,0.303624 0.51508,0.666889 0.66689,1.089797 0.151816,0.422907 0.227725,0.883767 0.227725,1.38258 0,0.639784 -0.113861,1.274145 -0.34158,1.903083 -0.216879,0.618096 -0.520504,1.209083 -0.910879,1.772957 -0.390376,0.563875 -0.851238,1.089801 -1.382582,1.577772 -0.531345,0.477125 -1.111489,0.894609 -1.740427,1.252452 -0.628936,0.347001 -1.290407,0.62352 -1.984409,0.829551 -0.694,0.195189 -1.393426,0.29278 -2.098273,0.29278 z m 9.791928,-6.652657 c 0.357846,-0.759062 0.53677,-1.32836 0.53677,-1.707891 0,-0.31447 -0.113863,-0.531346 -0.341585,-0.650627 -0.216876,-0.119282 -0.542186,-0.178922 -0.975936,-0.178922 h -2.212131 c -0.314468,0 -0.607251,0.04337 -0.878348,0.130124 -0.260252,0.07591 -0.504235,0.211455 -0.731954,0.406641 -0.227719,0.195189 -0.450014,0.455441 -0.66689,0.780755 -0.206029,0.325312 -0.417481,0.731952 -0.634357,1.21992 l -0.780758,1.77296 c -0.412061,0.921721 -0.618092,1.615723 -0.618092,2.082006 0,0.314468 0.09217,0.542187 0.276514,0.683154 0.184348,0.130125 0.45002,0.195189 0.797017,0.195189 h 2.228398 c 0.336158,0 0.645207,-0.0488 0.927145,-0.146389 0.28194,-0.108439 0.553034,-0.276519 0.813284,-0.504238 0.260249,-0.227718 0.509656,-0.531344 0.748218,-0.910875 0.238564,-0.379532 0.482547,-0.845815 0.731954,-1.398847 z"
         fill="#000000"
         id="path10252-5-7-8"
         style="fill:#000000;stroke:#ffffff;stroke-width:0.811045;stroke-miterlimit:4;stroke-dasharray:none" />
      <path
         d="m 56.65507,66.97665 c -0.195186,0 -0.29278,-0.06506 -0.29278,-0.195186 0,-0.06506 0.01627,-0.146391 0.0488,-0.243985 L 60.981733,56.30638 c 0.13013,-0.281938 0.336161,-0.422907 0.618101,-0.422907 h 5.595384 c 0.206031,0 0.309047,0.07048 0.309047,0.21145 0,0.06506 -0.0217,0.13555 -0.06506,0.211457 L 62.88482,66.537479 c -0.130128,0.292782 -0.336159,0.439171 -0.618099,0.439171 z"
         fill="#000000"
         id="path10254-6-0-4"
         style="fill:#000000;stroke:#ffffff;stroke-width:0.811045;stroke-miterlimit:4;stroke-dasharray:none" />
      <path
         d="m 64.65244,66.97665 c -0.195188,0 -0.29278,-0.06506 -0.29278,-0.195186 0,-0.06506 0.01627,-0.146391 0.0488,-0.243985 L 68.979102,56.30638 c 0.130128,-0.281938 0.336162,-0.422907 0.618099,-0.422907 h 13.077592 c 0.563877,0 1.062688,0.08675 1.496438,0.260248 0.43375,0.173501 0.797015,0.417487 1.089798,0.731957 0.29278,0.303624 0.51508,0.666889 0.666895,1.089797 0.15181,0.422907 0.227717,0.883767 0.227717,1.38258 0,0.661472 -0.113859,1.312099 -0.341577,1.95188 -0.227719,0.628939 -0.54219,1.225347 -0.943412,1.789224 -0.390374,0.563875 -0.856655,1.084376 -1.398842,1.561502 -0.531346,0.477126 -1.111488,0.88919 -1.740429,1.236189 -0.618095,0.336158 -1.268722,0.601832 -1.951876,0.797017 -0.683162,0.195189 -1.366319,0.292783 -2.049476,0.292783 z m 14.151123,-6.652657 c 0.347001,-0.78075 0.520502,-1.350048 0.520502,-1.707891 0,-0.31447 -0.108437,-0.531346 -0.325311,-0.650627 -0.216876,-0.119282 -0.531347,-0.178922 -0.943411,-0.178922 h -3.301929 l -3.220601,7.270749 h 3.285665 c 0.325313,0 0.628938,-0.0488 0.910878,-0.146389 0.281937,-0.108439 0.547611,-0.276516 0.797015,-0.504238 0.260252,-0.238564 0.509659,-0.542186 0.748221,-0.910875 0.249406,-0.379532 0.498813,-0.845815 0.748217,-1.398847 z"
         fill="#000000"
         id="path10256-2-9-5"
         style="fill:#000000;stroke:#ffffff;stroke-width:0.811045;stroke-miterlimit:4;stroke-dasharray:none" />
    </g>
    <text
       inkscape:export-ydpi="96"
       inkscape:export-xdpi="96"
       xml:space="preserve"
       id="text10355-7-5-8-1"
       style="font-style:normal;font-weight:normal;font-size:4.23333px;line-height:1.05;font-family:sans-serif;white-space:pre;shape-inside:url(#rect10357-8-3-2-36);fill:#000000;fill-opacity:1;stroke:none;"
       transform="translate(309.40178,322.96612)"><tspan
         x="56.332031"
         y="213.69178"><tspan
           style="font-style:normal;font-variant:normal;font-weight:normal;font-stretch:normal;font-size:4.23333px;font-family:'Libre Caslon Display';-inkscape-font-specification:'Libre Caslon Display';fill:#ffffff;fill-opacity:1">Void is a general purpose operating system, based on the </tspan></tspan><tspan
         x="56.332031"
         y="218.24271"><tspan
           style="font-style:normal;font-variant:normal;font-weight:normal;font-stretch:normal;font-size:4.23333px;font-family:'Libre Caslon Display';-inkscape-font-specification:'Libre Caslon Display';fill:#ffffff;fill-opacity:1">monolithic Linux</tspan><tspan
           style="font-style:normal;font-variant:normal;font-weight:normal;font-stretch:normal;font-size:4.23333px;font-family:'Libre Caslon Display';-inkscape-font-specification:'Libre Caslon Display';fill:#ffffff;fill-opacity:1">®</tspan><tspan
           style="font-style:normal;font-variant:normal;font-weight:normal;font-stretch:normal;font-size:4.23333px;font-family:'Libre Caslon Display';-inkscape-font-specification:'Libre Caslon Display';fill:#ffffff;fill-opacity:1"> kernel. Its package system allows you to </tspan></tspan><tspan
         x="56.332031"
         y="222.79365"><tspan
           style="font-style:normal;font-variant:normal;font-weight:normal;font-stretch:normal;font-size:4.23333px;font-family:'Libre Caslon Display';-inkscape-font-specification:'Libre Caslon Display';fill:#ffffff;fill-opacity:1">quickly install, update and remove software; software is provided </tspan></tspan><tspan
         x="56.332031"
         y="227.34458"><tspan
           style="font-style:normal;font-variant:normal;font-weight:normal;font-stretch:normal;font-size:4.23333px;font-family:'Libre Caslon Display';-inkscape-font-specification:'Libre Caslon Display';fill:#ffffff;fill-opacity:1">in binary packages or can be built directly from sources with the </tspan></tspan><tspan
         x="56.332031"
         y="231.89551"><tspan
           style="font-style:normal;font-variant:normal;font-weight:normal;font-stretch:normal;font-size:4.23333px;font-family:'Libre Caslon Display';-inkscape-font-specification:'Libre Caslon Display';fill:#ffffff;fill-opacity:1">help of the XBPS source packages collection. </tspan></tspan></text>
    <rect
       inkscape:export-ydpi="96"
       inkscape:export-xdpi="96"
       y="294.78949"
       x="552.92554"
       height="279.39011"
       width="215.89012"
       id="rect10310-7-6-1"
       style="fill:#1a1a1a;stroke-width:0.264583" />
    <text
       inkscape:export-ydpi="96"
       inkscape:export-xdpi="96"
       xml:space="preserve"
       id="text10355-7-5-1-0"
       style="font-style:normal;font-weight:normal;font-size:7.05556px;line-height:1.25;font-family:sans-serif;white-space:pre;shape-inside:url(#rect10357-8-3-9-7);fill:#000000;fill-opacity:1;stroke:none;"
       transform="translate(516.59164,328.71951)"><tspan
         x="56.332031"
         y="216.68275"><tspan
           style="font-style:normal;font-variant:normal;font-weight:normal;font-stretch:normal;font-size:7.05556px;font-family:'Libre Caslon Display';-inkscape-font-specification:'Libre Caslon Display';fill:#ffffff">Void Handbook</tspan></tspan></text>
    <path
       inkscape:export-ydpi="96"
       inkscape:export-xdpi="96"
       id="path10481-3-2-6"
       d="m 619.7981,561.95057 v -34.3924"
       style="fill:none;stroke:#ffffff;stroke-width:0.499999;stroke-linecap:butt;stroke-linejoin:miter;stroke-miterlimit:4;stroke-dasharray:none;stroke-opacity:1" />
    <text
       inkscape:export-ydpi="96"
       inkscape:export-xdpi="96"
       y="0"
       x="57.931183"
       transform="translate(545.24938,122.17941)"
       style="font-style:normal;font-weight:normal;font-size:26.4583px;line-height:1.25;font-family:sans-serif;white-space:pre;shape-inside:url(#rect10357-8-9-6-7-2);fill:#000000;fill-opacity:1;stroke:none;"
       id="text10355-7-2-5-9-1"
       xml:space="preserve"><tspan
         x="74.353689"
         y="233.67307"><tspan
           style="font-style:normal;font-variant:normal;font-weight:normal;font-stretch:normal;font-size:21.5194px;font-family:'Libre Caslon Text';-inkscape-font-specification:'Libre Caslon Text';text-align:center;text-anchor:middle;fill:#ffffff">ENTER
</tspan></tspan><tspan
         x="90.105877"
         y="266.74594"><tspan
           style="font-style:normal;font-variant:normal;font-weight:normal;font-stretch:normal;font-size:21.5194px;font-family:'Libre Caslon Text';-inkscape-font-specification:'Libre Caslon Text';text-align:center;text-anchor:middle;fill:#ffffff">THE</tspan></tspan></text>
    <g
       inkscape:export-ydpi="96"
       inkscape:export-xdpi="96"
       id="g10308-3-6-3-59"
       transform="matrix(0.98638135,0,0,0.98638135,610.39856,372.84008)">
      <path
         style="stroke:#ffffff;stroke-width:0.811045;stroke-miterlimit:4;stroke-dasharray:none"
         id="path10244-6-2-1-49"
         fill="#abc2ab"
         d="m 52.393726,33.628591 c -5.829269,0.01238 -11.507642,1.854006 -16.234586,5.265253 l 6.324252,6.324251 c 2.983825,-1.825253 6.412518,-2.793929 9.910334,-2.799877 10.523116,-2.1e-5 19.053793,8.530655 19.053772,19.053773 -0.0084,3.49657 -0.978842,6.923403 -2.804983,9.905228 l 6.336239,6.336239 c 3.410162,-4.729679 5.249439,-10.4106 5.258374,-16.241467 0,-15.377484 -12.46592,-27.8434 -27.843402,-27.8434 z" />
      <path
         style="stroke:#ffffff;stroke-width:0.811045;stroke-miterlimit:4;stroke-dasharray:none"
         id="path10246-7-9-9-0"
         fill="#478061"
         d="m 68.62831,84.050138 -6.324253,-6.32425 c -2.983826,1.825252 -6.412519,2.793931 -9.910331,2.799876 -10.523119,2.1e-5 -19.053795,-8.530656 -19.053774,-19.053773 0.0084,-3.49657 0.978838,-6.923404 2.804983,-9.905227 l -6.336242,-6.336238 c -3.410166,4.729675 -5.249434,10.410598 -5.258368,16.241465 0,15.377483 12.465916,27.843401 27.843401,27.843401 5.829268,-0.01238 11.507639,-1.854005 16.234584,-5.265254 z" />
      <circle
         style="stroke:#ffffff;stroke-width:0.811045;stroke-miterlimit:4;stroke-dasharray:none"
         id="circle10248-5-1-4-9"
         r="8.8644295"
         cy="61.471992"
         cx="52.389275"
         fill="#abc2ab" />
      <path
         style="fill:#000000;stroke:#ffffff;stroke-width:0.811045;stroke-miterlimit:4;stroke-dasharray:none"
         id="path10250-3-2-7-1"
         fill="#000000"
         d="m 26.61672,66.65134 c -0.303627,0.216873 -0.580143,0.32531 -0.829549,0.32531 h -1.073535 c -0.151813,0 -0.271094,-0.02711 -0.357844,-0.08133 -0.08675,-0.05422 -0.157233,-0.135549 -0.211453,-0.243985 L 18.646546,56.436504 c -0.02169,-0.02169 -0.03253,-0.0488 -0.03253,-0.08133 v -0.0976 c 0,-0.108437 0.03795,-0.195187 0.113861,-0.260251 0.08675,-0.07591 0.222297,-0.113858 0.406642,-0.113858 h 6.685186 c 0.357843,0 0.590984,0.108437 0.699421,0.325312 l 3.38326,6.52253 9.482875,-6.52253 c 0.31447,-0.216875 0.645206,-0.325312 0.992208,-0.325312 h 1.057265 c 0.140971,0 0.211457,0.05964 0.211457,0.178922 0,0.09759 -0.08675,0.216874 -0.260248,0.357843 z" />
      <path
         style="fill:#000000;stroke:#ffffff;stroke-width:0.811045;stroke-miterlimit:4;stroke-dasharray:none"
         id="path10252-5-7-8-7"
         fill="#000000"
         d="m 41.370181,66.97665 c -0.563876,0 -1.062689,-0.08675 -1.496438,-0.260249 -0.433754,-0.184343 -0.797022,-0.43375 -1.089804,-0.748221 -0.292782,-0.31447 -0.515079,-0.683157 -0.66689,-1.106061 -0.15181,-0.433753 -0.227716,-0.900036 -0.227716,-1.398852 0,-0.639781 0.108438,-1.26872 0.325312,-1.886813 0.216875,-0.618096 0.515079,-1.209082 0.894613,-1.77296 0.390373,-0.563876 0.84581,-1.084377 1.366311,-1.561502 0.531344,-0.477127 1.106065,-0.889191 1.724161,-1.23619 0.628941,-0.347 1.290411,-0.618094 1.98441,-0.813283 0.694004,-0.206031 1.404272,-0.309046 2.130802,-0.309046 h 7.970171 c 0.574722,0 1.078957,0.08675 1.512713,0.260248 0.444592,0.173501 0.813278,0.417487 1.106061,0.731957 0.292783,0.303624 0.51508,0.666889 0.66689,1.089797 0.151816,0.422907 0.227725,0.883767 0.227725,1.38258 0,0.639784 -0.113861,1.274145 -0.34158,1.903083 -0.216879,0.618096 -0.520504,1.209083 -0.910879,1.772957 -0.390376,0.563875 -0.851238,1.089801 -1.382582,1.577772 -0.531345,0.477125 -1.111489,0.894609 -1.740427,1.252452 -0.628936,0.347001 -1.290407,0.62352 -1.984409,0.829551 -0.694,0.195189 -1.393426,0.29278 -2.098273,0.29278 z m 9.791928,-6.652657 c 0.357846,-0.759062 0.53677,-1.32836 0.53677,-1.707891 0,-0.31447 -0.113863,-0.531346 -0.341585,-0.650627 -0.216876,-0.119282 -0.542186,-0.178922 -0.975936,-0.178922 h -2.212131 c -0.314468,0 -0.607251,0.04337 -0.878348,0.130124 -0.260252,0.07591 -0.504235,0.211455 -0.731954,0.406641 -0.227719,0.195189 -0.450014,0.455441 -0.66689,0.780755 -0.206029,0.325312 -0.417481,0.731952 -0.634357,1.21992 l -0.780758,1.77296 c -0.412061,0.921721 -0.618092,1.615723 -0.618092,2.082006 0,0.314468 0.09217,0.542187 0.276514,0.683154 0.184348,0.130125 0.45002,0.195189 0.797017,0.195189 h 2.228398 c 0.336158,0 0.645207,-0.0488 0.927145,-0.146389 0.28194,-0.108439 0.553034,-0.276519 0.813284,-0.504238 0.260249,-0.227718 0.509656,-0.531344 0.748218,-0.910875 0.238564,-0.379532 0.482547,-0.845815 0.731954,-1.398847 z" />
      <path
         style="fill:#000000;stroke:#ffffff;stroke-width:0.811045;stroke-miterlimit:4;stroke-dasharray:none"
         id="path10254-6-0-4-7"
         fill="#000000"
         d="m 56.65507,66.97665 c -0.195186,0 -0.29278,-0.06506 -0.29278,-0.195186 0,-0.06506 0.01627,-0.146391 0.0488,-0.243985 L 60.981733,56.30638 c 0.13013,-0.281938 0.336161,-0.422907 0.618101,-0.422907 h 5.595384 c 0.206031,0 0.309047,0.07048 0.309047,0.21145 0,0.06506 -0.0217,0.13555 -0.06506,0.211457 L 62.88482,66.537479 c -0.130128,0.292782 -0.336159,0.439171 -0.618099,0.439171 z" />
      <path
         style="fill:#000000;stroke:#ffffff;stroke-width:0.811045;stroke-miterlimit:4;stroke-dasharray:none"
         id="path10256-2-9-5-1"
         fill="#000000"
         d="m 64.65244,66.97665 c -0.195188,0 -0.29278,-0.06506 -0.29278,-0.195186 0,-0.06506 0.01627,-0.146391 0.0488,-0.243985 L 68.979102,56.30638 c 0.130128,-0.281938 0.336162,-0.422907 0.618099,-0.422907 h 13.077592 c 0.563877,0 1.062688,0.08675 1.496438,0.260248 0.43375,0.173501 0.797015,0.417487 1.089798,0.731957 0.29278,0.303624 0.51508,0.666889 0.666895,1.089797 0.15181,0.422907 0.227717,0.883767 0.227717,1.38258 0,0.661472 -0.113859,1.312099 -0.341577,1.95188 -0.227719,0.628939 -0.54219,1.225347 -0.943412,1.789224 -0.390374,0.563875 -0.856655,1.084376 -1.398842,1.561502 -0.531346,0.477126 -1.111488,0.88919 -1.740429,1.236189 -0.618095,0.336158 -1.268722,0.601832 -1.951876,0.797017 -0.683162,0.195189 -1.366319,0.292783 -2.049476,0.292783 z m 14.151123,-6.652657 c 0.347001,-0.78075 0.520502,-1.350048 0.520502,-1.707891 0,-0.31447 -0.108437,-0.531346 -0.325311,-0.650627 -0.216876,-0.119282 -0.531347,-0.178922 -0.943411,-0.178922 h -3.301929 l -3.220601,7.270749 h 3.285665 c 0.325313,0 0.628938,-0.0488 0.910878,-0.146389 0.281937,-0.108439 0.547611,-0.276516 0.797015,-0.504238 0.260252,-0.238564 0.509659,-0.542186 0.748221,-0.910875 0.249406,-0.379532 0.498813,-0.845815 0.748217,-1.398847 z" />
    </g>
    <text
       transform="translate(569.07127,322.96615)"
       style="font-style:normal;font-weight:normal;font-size:4.23333px;line-height:1.05;font-family:sans-serif;white-space:pre;shape-inside:url(#rect10357-8-3-2-36-26);fill:#000000;fill-opacity:1;stroke:none;"
       id="text10355-7-5-8-1-1"
       xml:space="preserve"
       inkscape:export-xdpi="96"
       inkscape:export-ydpi="96"><tspan
         x="56.332031"
         y="213.69178"><tspan
           style="font-style:normal;font-variant:normal;font-weight:normal;font-stretch:normal;font-size:4.23333px;font-family:'Libre Caslon Display';-inkscape-font-specification:'Libre Caslon Display';fill:#ffffff;fill-opacity:1">Void is a general purpose operating system, based on the </tspan></tspan><tspan
         x="56.332031"
         y="218.24271"><tspan
           style="font-style:normal;font-variant:normal;font-weight:normal;font-stretch:normal;font-size:4.23333px;font-family:'Libre Caslon Display';-inkscape-font-specification:'Libre Caslon Display';fill:#ffffff;fill-opacity:1">monolithic Linux</tspan><tspan
           style="font-style:normal;font-variant:normal;font-weight:normal;font-stretch:normal;font-size:4.23333px;font-family:'Libre Caslon Display';-inkscape-font-specification:'Libre Caslon Display';fill:#ffffff;fill-opacity:1">®</tspan><tspan
           style="font-style:normal;font-variant:normal;font-weight:normal;font-stretch:normal;font-size:4.23333px;font-family:'Libre Caslon Display';-inkscape-font-specification:'Libre Caslon Display';fill:#ffffff;fill-opacity:1"> kernel. Its package system allows you to </tspan></tspan><tspan
         x="56.332031"
         y="222.79365"><tspan
           style="font-style:normal;font-variant:normal;font-weight:normal;font-stretch:normal;font-size:4.23333px;font-family:'Libre Caslon Display';-inkscape-font-specification:'Libre Caslon Display';fill:#ffffff;fill-opacity:1">quickly install, update and remove software; software is provided </tspan></tspan><tspan
         x="56.332031"
         y="227.34458"><tspan
           style="font-style:normal;font-variant:normal;font-weight:normal;font-stretch:normal;font-size:4.23333px;font-family:'Libre Caslon Display';-inkscape-font-specification:'Libre Caslon Display';fill:#ffffff;fill-opacity:1">in binary packages or can be built directly from sources with the </tspan></tspan><tspan
         x="56.332031"
         y="231.89551"><tspan
           style="font-style:normal;font-variant:normal;font-weight:normal;font-stretch:normal;font-size:4.23333px;font-family:'Libre Caslon Display';-inkscape-font-specification:'Libre Caslon Display';fill:#ffffff;fill-opacity:1">help of the XBPS source packages collection. </tspan></tspan></text>
    <rect
       inkscape:export-ydpi="96"
       inkscape:export-xdpi="96"
       y="294.78949"
       x="35.968922"
       height="279.39011"
       width="215.89012"
       id="rect10310-7-6-7"
       style="fill:#b3b3b3;stroke-width:0.264583" />
    <text
       inkscape:export-ydpi="96"
       inkscape:export-xdpi="96"
       xml:space="preserve"
       id="text10355-7-5-1-67"
       style="font-style:normal;font-weight:normal;font-size:7.05556px;line-height:1.25;font-family:sans-serif;white-space:pre;shape-inside:url(#rect10357-8-3-9-5);fill:#000000;fill-opacity:1;stroke:none;"
       transform="translate(-0.36494699,328.7195)"><tspan
         x="56.332031"
         y="216.68275"><tspan
           style="font-style:normal;font-variant:normal;font-weight:normal;font-stretch:normal;font-size:7.05556px;font-family:'Libre Caslon Display';-inkscape-font-specification:'Libre Caslon Display';fill:#ffffff">Void Handbook</tspan></tspan></text>
    <path
       inkscape:export-ydpi="96"
       inkscape:export-xdpi="96"
       id="path10481-3-2-3"
       d="m 102.84151,561.95055 v -34.3924"
       style="fill:none;stroke:#ffffff;stroke-width:0.499999;stroke-linecap:butt;stroke-linejoin:miter;stroke-miterlimit:4;stroke-dasharray:none;stroke-opacity:1" />
    <text
       inkscape:export-ydpi="96"
       inkscape:export-xdpi="96"
       y="0"
       x="57.931183"
       transform="translate(28.292803,122.17939)"
       style="font-style:normal;font-weight:normal;font-size:26.4583px;line-height:1.25;font-family:sans-serif;white-space:pre;shape-inside:url(#rect10357-8-9-6-7-9);fill:#000000;fill-opacity:1;stroke:none;"
       id="text10355-7-2-5-9-6"
       xml:space="preserve"><tspan
         x="74.353689"
         y="233.67307"><tspan
           style="font-style:normal;font-variant:normal;font-weight:normal;font-stretch:normal;font-size:21.5194px;font-family:'Libre Caslon Text';-inkscape-font-specification:'Libre Caslon Text';text-align:center;text-anchor:middle;fill:#ffffff">ENTER
</tspan></tspan><tspan
         x="90.105877"
         y="266.74594"><tspan
           style="font-style:normal;font-variant:normal;font-weight:normal;font-stretch:normal;font-size:21.5194px;font-family:'Libre Caslon Text';-inkscape-font-specification:'Libre Caslon Text';text-align:center;text-anchor:middle;fill:#ffffff">THE</tspan></tspan></text>
    <g
       inkscape:export-ydpi="96"
       inkscape:export-xdpi="96"
       id="g10308-3-6-3-56"
       transform="matrix(0.98638135,0,0,0.98638135,93.44197,372.84007)">
      <path
         style="stroke:#ffffff;stroke-width:0.811045;stroke-miterlimit:4;stroke-dasharray:none"
         id="path10244-6-2-1-3"
         fill="#abc2ab"
         d="m 52.393726,33.628591 c -5.829269,0.01238 -11.507642,1.854006 -16.234586,5.265253 l 6.324252,6.324251 c 2.983825,-1.825253 6.412518,-2.793929 9.910334,-2.799877 10.523116,-2.1e-5 19.053793,8.530655 19.053772,19.053773 -0.0084,3.49657 -0.978842,6.923403 -2.804983,9.905228 l 6.336239,6.336239 c 3.410162,-4.729679 5.249439,-10.4106 5.258374,-16.241467 0,-15.377484 -12.46592,-27.8434 -27.843402,-27.8434 z" />
      <path
         style="stroke:#ffffff;stroke-width:0.811045;stroke-miterlimit:4;stroke-dasharray:none"
         id="path10246-7-9-9-9"
         fill="#478061"
         d="m 68.62831,84.050138 -6.324253,-6.32425 c -2.983826,1.825252 -6.412519,2.793931 -9.910331,2.799876 -10.523119,2.1e-5 -19.053795,-8.530656 -19.053774,-19.053773 0.0084,-3.49657 0.978838,-6.923404 2.804983,-9.905227 l -6.336242,-6.336238 c -3.410166,4.729675 -5.249434,10.410598 -5.258368,16.241465 0,15.377483 12.465916,27.843401 27.843401,27.843401 5.829268,-0.01238 11.507639,-1.854005 16.234584,-5.265254 z" />
      <circle
         style="stroke:#ffffff;stroke-width:0.811045;stroke-miterlimit:4;stroke-dasharray:none"
         id="circle10248-5-1-4-4"
         r="8.8644295"
         cy="61.471992"
         cx="52.389275"
         fill="#abc2ab" />
      <path
         style="fill:#000000;stroke:#ffffff;stroke-width:0.811045;stroke-miterlimit:4;stroke-dasharray:none"
         id="path10250-3-2-7-8"
         fill="#000000"
         d="m 26.61672,66.65134 c -0.303627,0.216873 -0.580143,0.32531 -0.829549,0.32531 h -1.073535 c -0.151813,0 -0.271094,-0.02711 -0.357844,-0.08133 -0.08675,-0.05422 -0.157233,-0.135549 -0.211453,-0.243985 L 18.646546,56.436504 c -0.02169,-0.02169 -0.03253,-0.0488 -0.03253,-0.08133 v -0.0976 c 0,-0.108437 0.03795,-0.195187 0.113861,-0.260251 0.08675,-0.07591 0.222297,-0.113858 0.406642,-0.113858 h 6.685186 c 0.357843,0 0.590984,0.108437 0.699421,0.325312 l 3.38326,6.52253 9.482875,-6.52253 c 0.31447,-0.216875 0.645206,-0.325312 0.992208,-0.325312 h 1.057265 c 0.140971,0 0.211457,0.05964 0.211457,0.178922 0,0.09759 -0.08675,0.216874 -0.260248,0.357843 z" />
      <path
         style="fill:#000000;stroke:#ffffff;stroke-width:0.811045;stroke-miterlimit:4;stroke-dasharray:none"
         id="path10252-5-7-8-1"
         fill="#000000"
         d="m 41.370181,66.97665 c -0.563876,0 -1.062689,-0.08675 -1.496438,-0.260249 -0.433754,-0.184343 -0.797022,-0.43375 -1.089804,-0.748221 -0.292782,-0.31447 -0.515079,-0.683157 -0.66689,-1.106061 -0.15181,-0.433753 -0.227716,-0.900036 -0.227716,-1.398852 0,-0.639781 0.108438,-1.26872 0.325312,-1.886813 0.216875,-0.618096 0.515079,-1.209082 0.894613,-1.77296 0.390373,-0.563876 0.84581,-1.084377 1.366311,-1.561502 0.531344,-0.477127 1.106065,-0.889191 1.724161,-1.23619 0.628941,-0.347 1.290411,-0.618094 1.98441,-0.813283 0.694004,-0.206031 1.404272,-0.309046 2.130802,-0.309046 h 7.970171 c 0.574722,0 1.078957,0.08675 1.512713,0.260248 0.444592,0.173501 0.813278,0.417487 1.106061,0.731957 0.292783,0.303624 0.51508,0.666889 0.66689,1.089797 0.151816,0.422907 0.227725,0.883767 0.227725,1.38258 0,0.639784 -0.113861,1.274145 -0.34158,1.903083 -0.216879,0.618096 -0.520504,1.209083 -0.910879,1.772957 -0.390376,0.563875 -0.851238,1.089801 -1.382582,1.577772 -0.531345,0.477125 -1.111489,0.894609 -1.740427,1.252452 -0.628936,0.347001 -1.290407,0.62352 -1.984409,0.829551 -0.694,0.195189 -1.393426,0.29278 -2.098273,0.29278 z m 9.791928,-6.652657 c 0.357846,-0.759062 0.53677,-1.32836 0.53677,-1.707891 0,-0.31447 -0.113863,-0.531346 -0.341585,-0.650627 -0.216876,-0.119282 -0.542186,-0.178922 -0.975936,-0.178922 h -2.212131 c -0.314468,0 -0.607251,0.04337 -0.878348,0.130124 -0.260252,0.07591 -0.504235,0.211455 -0.731954,0.406641 -0.227719,0.195189 -0.450014,0.455441 -0.66689,0.780755 -0.206029,0.325312 -0.417481,0.731952 -0.634357,1.21992 l -0.780758,1.77296 c -0.412061,0.921721 -0.618092,1.615723 -0.618092,2.082006 0,0.314468 0.09217,0.542187 0.276514,0.683154 0.184348,0.130125 0.45002,0.195189 0.797017,0.195189 h 2.228398 c 0.336158,0 0.645207,-0.0488 0.927145,-0.146389 0.28194,-0.108439 0.553034,-0.276519 0.813284,-0.504238 0.260249,-0.227718 0.509656,-0.531344 0.748218,-0.910875 0.238564,-0.379532 0.482547,-0.845815 0.731954,-1.398847 z" />
      <path
         style="fill:#000000;stroke:#ffffff;stroke-width:0.811045;stroke-miterlimit:4;stroke-dasharray:none"
         id="path10254-6-0-4-2"
         fill="#000000"
         d="m 56.65507,66.97665 c -0.195186,0 -0.29278,-0.06506 -0.29278,-0.195186 0,-0.06506 0.01627,-0.146391 0.0488,-0.243985 L 60.981733,56.30638 c 0.13013,-0.281938 0.336161,-0.422907 0.618101,-0.422907 h 5.595384 c 0.206031,0 0.309047,0.07048 0.309047,0.21145 0,0.06506 -0.0217,0.13555 -0.06506,0.211457 L 62.88482,66.537479 c -0.130128,0.292782 -0.336159,0.439171 -0.618099,0.439171 z" />
      <path
         style="fill:#000000;stroke:#ffffff;stroke-width:0.811045;stroke-miterlimit:4;stroke-dasharray:none"
         id="path10256-2-9-5-9"
         fill="#000000"
         d="m 64.65244,66.97665 c -0.195188,0 -0.29278,-0.06506 -0.29278,-0.195186 0,-0.06506 0.01627,-0.146391 0.0488,-0.243985 L 68.979102,56.30638 c 0.130128,-0.281938 0.336162,-0.422907 0.618099,-0.422907 h 13.077592 c 0.563877,0 1.062688,0.08675 1.496438,0.260248 0.43375,0.173501 0.797015,0.417487 1.089798,0.731957 0.29278,0.303624 0.51508,0.666889 0.666895,1.089797 0.15181,0.422907 0.227717,0.883767 0.227717,1.38258 0,0.661472 -0.113859,1.312099 -0.341577,1.95188 -0.227719,0.628939 -0.54219,1.225347 -0.943412,1.789224 -0.390374,0.563875 -0.856655,1.084376 -1.398842,1.561502 -0.531346,0.477126 -1.111488,0.88919 -1.740429,1.236189 -0.618095,0.336158 -1.268722,0.601832 -1.951876,0.797017 -0.683162,0.195189 -1.366319,0.292783 -2.049476,0.292783 z m 14.151123,-6.652657 c 0.347001,-0.78075 0.520502,-1.350048 0.520502,-1.707891 0,-0.31447 -0.108437,-0.531346 -0.325311,-0.650627 -0.216876,-0.119282 -0.531347,-0.178922 -0.943411,-0.178922 h -3.301929 l -3.220601,7.270749 h 3.285665 c 0.325313,0 0.628938,-0.0488 0.910878,-0.146389 0.281937,-0.108439 0.547611,-0.276516 0.797015,-0.504238 0.260252,-0.238564 0.509659,-0.542186 0.748221,-0.910875 0.249406,-0.379532 0.498813,-0.845815 0.748217,-1.398847 z" />
    </g>
    <text
       transform="translate(52.114693,322.96613)"
       style="font-style:normal;font-weight:normal;font-size:4.23333px;line-height:1.05;font-family:sans-serif;white-space:pre;shape-inside:url(#rect10357-8-3-2-36-7);fill:#000000;fill-opacity:1;stroke:none;"
       id="text10355-7-5-8-1-3"
       xml:space="preserve"
       inkscape:export-xdpi="96"
       inkscape:export-ydpi="96"><tspan
         x="56.332031"
         y="213.69178"><tspan
           style="font-style:normal;font-variant:normal;font-weight:normal;font-stretch:normal;font-size:4.23333px;font-family:'Libre Caslon Display';-inkscape-font-specification:'Libre Caslon Display';fill:#ffffff;fill-opacity:1">Void is a general purpose operating system, based on the </tspan></tspan><tspan
         x="56.332031"
         y="218.24271"><tspan
           style="font-style:normal;font-variant:normal;font-weight:normal;font-stretch:normal;font-size:4.23333px;font-family:'Libre Caslon Display';-inkscape-font-specification:'Libre Caslon Display';fill:#ffffff;fill-opacity:1">monolithic Linux</tspan><tspan
           style="font-style:normal;font-variant:normal;font-weight:normal;font-stretch:normal;font-size:4.23333px;font-family:'Libre Caslon Display';-inkscape-font-specification:'Libre Caslon Display';fill:#ffffff;fill-opacity:1">®</tspan><tspan
           style="font-style:normal;font-variant:normal;font-weight:normal;font-stretch:normal;font-size:4.23333px;font-family:'Libre Caslon Display';-inkscape-font-specification:'Libre Caslon Display';fill:#ffffff;fill-opacity:1"> kernel. Its package system allows you to </tspan></tspan><tspan
         x="56.332031"
         y="222.79365"><tspan
           style="font-style:normal;font-variant:normal;font-weight:normal;font-stretch:normal;font-size:4.23333px;font-family:'Libre Caslon Display';-inkscape-font-specification:'Libre Caslon Display';fill:#ffffff;fill-opacity:1">quickly install, update and remove software; software is provided </tspan></tspan><tspan
         x="56.332031"
         y="227.34458"><tspan
           style="font-style:normal;font-variant:normal;font-weight:normal;font-stretch:normal;font-size:4.23333px;font-family:'Libre Caslon Display';-inkscape-font-specification:'Libre Caslon Display';fill:#ffffff;fill-opacity:1">in binary packages or can be built directly from sources with the </tspan></tspan><tspan
         x="56.332031"
         y="231.89551"><tspan
           style="font-style:normal;font-variant:normal;font-weight:normal;font-stretch:normal;font-size:4.23333px;font-family:'Libre Caslon Display';-inkscape-font-specification:'Libre Caslon Display';fill:#ffffff;fill-opacity:1">help of the XBPS source packages collection. </tspan></tspan></text>
    <rect
       style="fill:#f2f2f2;stroke-width:0.264583"
       id="rect10310-7-6-1-2"
       width="215.89012"
       height="279.39011"
       x="555.83594"
       y="596.28699"
       inkscape:export-xdpi="96"
       inkscape:export-ydpi="96" />
    <text
       transform="translate(519.50204,630.21698)"
       style="font-style:normal;font-weight:normal;font-size:6.35px;line-height:1.25;font-family:sans-serif;white-space:pre;shape-inside:url(#rect10357-8-3-9-7-3);fill:#000000;fill-opacity:1;stroke:none;"
       id="text10355-7-5-1-0-3"
       xml:space="preserve"
       inkscape:export-xdpi="96"
       inkscape:export-ydpi="96"><tspan
         x="56.332031"
         y="215.98346"><tspan
           style="font-style:normal;font-variant:normal;font-weight:normal;font-stretch:normal;font-size:6.35px;font-family:'Liberation Sans';-inkscape-font-specification:'Liberation Sans';fill:#000000">Void Handbook</tspan></tspan></text>
    <path
       style="fill:none;stroke:#000000;stroke-width:0.499999;stroke-linecap:butt;stroke-linejoin:miter;stroke-miterlimit:4;stroke-dasharray:none;stroke-opacity:1"
       d="M 622.70851,863.44806 V 829.05565"
       id="path10481-3-2-6-7"
       inkscape:export-xdpi="96"
       inkscape:export-ydpi="96" />
    <text
       xml:space="preserve"
       id="text10355-7-2-5-9-1-5"
       style="font-style:normal;font-weight:normal;font-size:26.4583px;line-height:1.25;font-family:sans-serif;white-space:pre;shape-inside:url(#rect10357-8-9-6-7-2-5);fill:#000000;fill-opacity:1;stroke:none;"
       transform="translate(548.1598,423.67689)"
       x="57.931183"
       y="0"
       inkscape:export-xdpi="96"
       inkscape:export-ydpi="96"><tspan
         x="79.807092"
         y="233.67307"><tspan
           style="font-style:normal;font-variant:normal;font-weight:bold;font-stretch:normal;font-size:21.5194px;font-family:'Liberation Sans';-inkscape-font-specification:'Liberation Sans Bold';text-align:center;text-anchor:middle;fill:#000000">ENTER
</tspan></tspan><tspan
         x="94.754038"
         y="266.74594"><tspan
           style="font-style:normal;font-variant:normal;font-weight:bold;font-stretch:normal;font-size:21.5194px;font-family:'Liberation Sans';-inkscape-font-specification:'Liberation Sans Bold';text-align:center;text-anchor:middle;fill:#000000">THE</tspan></tspan></text>
    <g
       style="stroke:#ffffff"
       transform="matrix(0.98638135,0,0,0.98638135,613.30897,674.33757)"
       id="g10308-3-6-3-59-9"
       inkscape:export-xdpi="96"
       inkscape:export-ydpi="96">
      <path
         d="m 52.393726,33.628591 c -5.829269,0.01238 -11.507642,1.854006 -16.234586,5.265253 l 6.324252,6.324251 c 2.983825,-1.825253 6.412518,-2.793929 9.910334,-2.799877 10.523116,-2.1e-5 19.053793,8.530655 19.053772,19.053773 -0.0084,3.49657 -0.978842,6.923403 -2.804983,9.905228 l 6.336239,6.336239 c 3.410162,-4.729679 5.249439,-10.4106 5.258374,-16.241467 0,-15.377484 -12.46592,-27.8434 -27.843402,-27.8434 z"
         fill="#abc2ab"
         id="path10244-6-2-1-49-2"
         style="stroke:#ffffff;stroke-width:0.811045;stroke-miterlimit:4;stroke-dasharray:none" />
      <path
         d="m 68.62831,84.050138 -6.324253,-6.32425 c -2.983826,1.825252 -6.412519,2.793931 -9.910331,2.799876 -10.523119,2.1e-5 -19.053795,-8.530656 -19.053774,-19.053773 0.0084,-3.49657 0.978838,-6.923404 2.804983,-9.905227 l -6.336242,-6.336238 c -3.410166,4.729675 -5.249434,10.410598 -5.258368,16.241465 0,15.377483 12.465916,27.843401 27.843401,27.843401 5.829268,-0.01238 11.507639,-1.854005 16.234584,-5.265254 z"
         fill="#478061"
         id="path10246-7-9-9-0-2"
         style="stroke:#ffffff;stroke-width:0.811045;stroke-miterlimit:4;stroke-dasharray:none" />
      <circle
         fill="#abc2ab"
         cx="52.389275"
         cy="61.471992"
         r="8.8644295"
         id="circle10248-5-1-4-9-8"
         style="stroke:#ffffff;stroke-width:0.811045;stroke-miterlimit:4;stroke-dasharray:none" />
      <path
         d="m 26.61672,66.65134 c -0.303627,0.216873 -0.580143,0.32531 -0.829549,0.32531 h -1.073535 c -0.151813,0 -0.271094,-0.02711 -0.357844,-0.08133 -0.08675,-0.05422 -0.157233,-0.135549 -0.211453,-0.243985 L 18.646546,56.436504 c -0.02169,-0.02169 -0.03253,-0.0488 -0.03253,-0.08133 v -0.0976 c 0,-0.108437 0.03795,-0.195187 0.113861,-0.260251 0.08675,-0.07591 0.222297,-0.113858 0.406642,-0.113858 h 6.685186 c 0.357843,0 0.590984,0.108437 0.699421,0.325312 l 3.38326,6.52253 9.482875,-6.52253 c 0.31447,-0.216875 0.645206,-0.325312 0.992208,-0.325312 h 1.057265 c 0.140971,0 0.211457,0.05964 0.211457,0.178922 0,0.09759 -0.08675,0.216874 -0.260248,0.357843 z"
         fill="#000000"
         id="path10250-3-2-7-1-9"
         style="fill:#000000;stroke:#ffffff;stroke-width:0.811045;stroke-miterlimit:4;stroke-dasharray:none" />
      <path
         d="m 41.370181,66.97665 c -0.563876,0 -1.062689,-0.08675 -1.496438,-0.260249 -0.433754,-0.184343 -0.797022,-0.43375 -1.089804,-0.748221 -0.292782,-0.31447 -0.515079,-0.683157 -0.66689,-1.106061 -0.15181,-0.433753 -0.227716,-0.900036 -0.227716,-1.398852 0,-0.639781 0.108438,-1.26872 0.325312,-1.886813 0.216875,-0.618096 0.515079,-1.209082 0.894613,-1.77296 0.390373,-0.563876 0.84581,-1.084377 1.366311,-1.561502 0.531344,-0.477127 1.106065,-0.889191 1.724161,-1.23619 0.628941,-0.347 1.290411,-0.618094 1.98441,-0.813283 0.694004,-0.206031 1.404272,-0.309046 2.130802,-0.309046 h 7.970171 c 0.574722,0 1.078957,0.08675 1.512713,0.260248 0.444592,0.173501 0.813278,0.417487 1.106061,0.731957 0.292783,0.303624 0.51508,0.666889 0.66689,1.089797 0.151816,0.422907 0.227725,0.883767 0.227725,1.38258 0,0.639784 -0.113861,1.274145 -0.34158,1.903083 -0.216879,0.618096 -0.520504,1.209083 -0.910879,1.772957 -0.390376,0.563875 -0.851238,1.089801 -1.382582,1.577772 -0.531345,0.477125 -1.111489,0.894609 -1.740427,1.252452 -0.628936,0.347001 -1.290407,0.62352 -1.984409,0.829551 -0.694,0.195189 -1.393426,0.29278 -2.098273,0.29278 z m 9.791928,-6.652657 c 0.357846,-0.759062 0.53677,-1.32836 0.53677,-1.707891 0,-0.31447 -0.113863,-0.531346 -0.341585,-0.650627 -0.216876,-0.119282 -0.542186,-0.178922 -0.975936,-0.178922 h -2.212131 c -0.314468,0 -0.607251,0.04337 -0.878348,0.130124 -0.260252,0.07591 -0.504235,0.211455 -0.731954,0.406641 -0.227719,0.195189 -0.450014,0.455441 -0.66689,0.780755 -0.206029,0.325312 -0.417481,0.731952 -0.634357,1.21992 l -0.780758,1.77296 c -0.412061,0.921721 -0.618092,1.615723 -0.618092,2.082006 0,0.314468 0.09217,0.542187 0.276514,0.683154 0.184348,0.130125 0.45002,0.195189 0.797017,0.195189 h 2.228398 c 0.336158,0 0.645207,-0.0488 0.927145,-0.146389 0.28194,-0.108439 0.553034,-0.276519 0.813284,-0.504238 0.260249,-0.227718 0.509656,-0.531344 0.748218,-0.910875 0.238564,-0.379532 0.482547,-0.845815 0.731954,-1.398847 z"
         fill="#000000"
         id="path10252-5-7-8-7-7"
         style="fill:#000000;stroke:#ffffff;stroke-width:0.811045;stroke-miterlimit:4;stroke-dasharray:none" />
      <path
         d="m 56.65507,66.97665 c -0.195186,0 -0.29278,-0.06506 -0.29278,-0.195186 0,-0.06506 0.01627,-0.146391 0.0488,-0.243985 L 60.981733,56.30638 c 0.13013,-0.281938 0.336161,-0.422907 0.618101,-0.422907 h 5.595384 c 0.206031,0 0.309047,0.07048 0.309047,0.21145 0,0.06506 -0.0217,0.13555 -0.06506,0.211457 L 62.88482,66.537479 c -0.130128,0.292782 -0.336159,0.439171 -0.618099,0.439171 z"
         fill="#000000"
         id="path10254-6-0-4-7-3"
         style="fill:#000000;stroke:#ffffff;stroke-width:0.811045;stroke-miterlimit:4;stroke-dasharray:none" />
      <path
         d="m 64.65244,66.97665 c -0.195188,0 -0.29278,-0.06506 -0.29278,-0.195186 0,-0.06506 0.01627,-0.146391 0.0488,-0.243985 L 68.979102,56.30638 c 0.130128,-0.281938 0.336162,-0.422907 0.618099,-0.422907 h 13.077592 c 0.563877,0 1.062688,0.08675 1.496438,0.260248 0.43375,0.173501 0.797015,0.417487 1.089798,0.731957 0.29278,0.303624 0.51508,0.666889 0.666895,1.089797 0.15181,0.422907 0.227717,0.883767 0.227717,1.38258 0,0.661472 -0.113859,1.312099 -0.341577,1.95188 -0.227719,0.628939 -0.54219,1.225347 -0.943412,1.789224 -0.390374,0.563875 -0.856655,1.084376 -1.398842,1.561502 -0.531346,0.477126 -1.111488,0.88919 -1.740429,1.236189 -0.618095,0.336158 -1.268722,0.601832 -1.951876,0.797017 -0.683162,0.195189 -1.366319,0.292783 -2.049476,0.292783 z m 14.151123,-6.652657 c 0.347001,-0.78075 0.520502,-1.350048 0.520502,-1.707891 0,-0.31447 -0.108437,-0.531346 -0.325311,-0.650627 -0.216876,-0.119282 -0.531347,-0.178922 -0.943411,-0.178922 h -3.301929 l -3.220601,7.270749 h 3.285665 c 0.325313,0 0.628938,-0.0488 0.910878,-0.146389 0.281937,-0.108439 0.547611,-0.276516 0.797015,-0.504238 0.260252,-0.238564 0.509659,-0.542186 0.748221,-0.910875 0.249406,-0.379532 0.498813,-0.845815 0.748217,-1.398847 z"
         fill="#000000"
         id="path10256-2-9-5-1-6"
         style="fill:#000000;stroke:#ffffff;stroke-width:0.811045;stroke-miterlimit:4;stroke-dasharray:none" />
    </g>
    <text
       inkscape:export-ydpi="96"
       inkscape:export-xdpi="96"
       xml:space="preserve"
       id="text10355-7-5-8-1-1-1"
       style="font-style:normal;font-weight:normal;font-size:4.23333px;line-height:1.05;font-family:sans-serif;white-space:pre;shape-inside:url(#rect10357-8-3-2-36-26-6);fill:#000000;fill-opacity:1;stroke:none;"
       transform="translate(570.31206,622.41113)"><tspan
         x="56.332031"
         y="213.65353"><tspan
           style="font-style:normal;font-variant:normal;font-weight:normal;font-stretch:normal;font-size:4.23333px;font-family:'Liberation Sans';-inkscape-font-specification:'Liberation Sans';fill:#000000;fill-opacity:1">Void is a general purpose operating system, based on </tspan></tspan><tspan
         x="56.332031"
         y="218.16621"><tspan
           style="font-style:normal;font-variant:normal;font-weight:normal;font-stretch:normal;font-size:4.23333px;font-family:'Liberation Sans';-inkscape-font-specification:'Liberation Sans';fill:#000000;fill-opacity:1">the monolithic Linux</tspan><tspan
           style="font-style:normal;font-variant:normal;font-weight:normal;font-stretch:normal;font-size:4.23333px;font-family:'Liberation Sans';-inkscape-font-specification:'Liberation Sans';fill:#000000;fill-opacity:1">®</tspan><tspan
           style="font-style:normal;font-variant:normal;font-weight:normal;font-stretch:normal;font-size:4.23333px;font-family:'Liberation Sans';-inkscape-font-specification:'Liberation Sans';fill:#000000;fill-opacity:1"> kernel. Its package system </tspan></tspan><tspan
         x="56.332031"
         y="222.67889"><tspan
           style="font-style:normal;font-variant:normal;font-weight:normal;font-stretch:normal;font-size:4.23333px;font-family:'Liberation Sans';-inkscape-font-specification:'Liberation Sans';fill:#000000;fill-opacity:1">allows you to quickly install, update and remove </tspan></tspan><tspan
         x="56.332031"
         y="227.19157"><tspan
           style="font-style:normal;font-variant:normal;font-weight:normal;font-stretch:normal;font-size:4.23333px;font-family:'Liberation Sans';-inkscape-font-specification:'Liberation Sans';fill:#000000;fill-opacity:1">software; software is provided in binary packages or </tspan></tspan><tspan
         x="56.332031"
         y="231.70425"><tspan
           style="font-style:normal;font-variant:normal;font-weight:normal;font-stretch:normal;font-size:4.23333px;font-family:'Liberation Sans';-inkscape-font-specification:'Liberation Sans';fill:#000000;fill-opacity:1">can be built directly from sources with the help of the </tspan></tspan><tspan
         x="56.332031"
         y="236.21693"><tspan
           style="font-style:normal;font-variant:normal;font-weight:normal;font-stretch:normal;font-size:4.23333px;font-family:'Liberation Sans';-inkscape-font-specification:'Liberation Sans';fill:#000000;fill-opacity:1">XBPS source packages collection. </tspan></tspan></text>
    <rect
       inkscape:export-ydpi="96"
       inkscape:export-xdpi="96"
       y="596.28699"
       x="293.25601"
       height="279.39011"
       width="215.89012"
       id="rect10310-7-6-1-2-2"
       style="fill:#4d4d4d;stroke-width:0.264583" />
    <text
       inkscape:export-ydpi="96"
       inkscape:export-xdpi="96"
       xml:space="preserve"
       id="text10355-7-5-1-0-3-0"
       style="font-style:normal;font-weight:normal;font-size:6.35px;line-height:1.25;font-family:sans-serif;white-space:pre;shape-inside:url(#rect10357-8-3-9-7-3-1);fill:#ffffff;fill-opacity:1;stroke:none;"
       transform="translate(256.92216,630.21698)"><tspan
         x="56.332031"
         y="215.98346"><tspan
           style="font-style:normal;font-variant:normal;font-weight:normal;font-stretch:normal;font-size:6.35px;font-family:'Liberation Sans';-inkscape-font-specification:'Liberation Sans';fill:#ffffff">Void Handbook</tspan></tspan></text>
    <path
       inkscape:export-ydpi="96"
       inkscape:export-xdpi="96"
       id="path10481-3-2-6-7-6"
       d="m 360.12864,863.44806 v -34.3924"
       style="fill:none;stroke:#ffffff;stroke-width:0.499999;stroke-linecap:butt;stroke-linejoin:miter;stroke-miterlimit:4;stroke-dasharray:none;stroke-opacity:1" />
    <text
       inkscape:export-ydpi="96"
       inkscape:export-xdpi="96"
       y="0"
       x="57.931183"
       transform="translate(285.57992,423.67688)"
       style="font-style:normal;font-weight:normal;font-size:26.4583px;line-height:1.25;font-family:sans-serif;white-space:pre;shape-inside:url(#rect10357-8-9-6-7-2-5-6);fill:#ffffff;fill-opacity:1;stroke:none;"
       id="text10355-7-2-5-9-1-5-1"
       xml:space="preserve"><tspan
         x="79.807092"
         y="233.67307"><tspan
           style="font-style:normal;font-variant:normal;font-weight:bold;font-stretch:normal;font-size:21.5194px;font-family:'Liberation Sans';-inkscape-font-specification:'Liberation Sans Bold';text-align:center;text-anchor:middle;fill:#ffffff">ENTER
</tspan></tspan><tspan
         x="94.754038"
         y="266.74594"><tspan
           style="font-style:normal;font-variant:normal;font-weight:bold;font-stretch:normal;font-size:21.5194px;font-family:'Liberation Sans';-inkscape-font-specification:'Liberation Sans Bold';text-align:center;text-anchor:middle;fill:#ffffff">THE</tspan></tspan></text>
    <g
       inkscape:export-ydpi="96"
       inkscape:export-xdpi="96"
       id="g10308-3-6-3-59-9-5"
       transform="matrix(0.98638135,0,0,0.98638135,350.7291,674.33758)">
      <path
         style="stroke:#ffffff;stroke-width:0.81104534;stroke-miterlimit:4;stroke-dasharray:none"
         id="path10244-6-2-1-49-2-5"
         fill="#abc2ab"
         d="m 52.393726,33.628591 c -5.829269,0.01238 -11.507642,1.854006 -16.234586,5.265253 l 6.324252,6.324251 c 2.983825,-1.825253 6.412518,-2.793929 9.910334,-2.799877 10.523116,-2.1e-5 19.053793,8.530655 19.053772,19.053773 -0.0084,3.49657 -0.978842,6.923403 -2.804983,9.905228 l 6.336239,6.336239 c 3.410162,-4.729679 5.249439,-10.4106 5.258374,-16.241467 0,-15.377484 -12.46592,-27.8434 -27.843402,-27.8434 z" />
      <path
         style="stroke:#ffffff;stroke-width:0.81104534;stroke-miterlimit:4;stroke-dasharray:none"
         id="path10246-7-9-9-0-2-4"
         fill="#478061"
         d="m 68.62831,84.050138 -6.324253,-6.32425 c -2.983826,1.825252 -6.412519,2.793931 -9.910331,2.799876 -10.523119,2.1e-5 -19.053795,-8.530656 -19.053774,-19.053773 0.0084,-3.49657 0.978838,-6.923404 2.804983,-9.905227 l -6.336242,-6.336238 c -3.410166,4.729675 -5.249434,10.410598 -5.258368,16.241465 0,15.377483 12.465916,27.843401 27.843401,27.843401 5.829268,-0.01238 11.507639,-1.854005 16.234584,-5.265254 z" />
      <circle
         style="stroke:#ffffff;stroke-width:0.81104534;stroke-miterlimit:4;stroke-dasharray:none"
         id="circle10248-5-1-4-9-8-7"
         r="8.8644295"
         cy="61.471992"
         cx="52.389275"
         fill="#abc2ab" />
      <path
         style="fill:#000000;stroke:#ffffff;stroke-width:0.81104534;stroke-miterlimit:4;stroke-dasharray:none"
         id="path10250-3-2-7-1-9-6"
         fill="#000000"
         d="m 26.61672,66.65134 c -0.303627,0.216873 -0.580143,0.32531 -0.829549,0.32531 h -1.073535 c -0.151813,0 -0.271094,-0.02711 -0.357844,-0.08133 -0.08675,-0.05422 -0.157233,-0.135549 -0.211453,-0.243985 L 18.646546,56.436504 c -0.02169,-0.02169 -0.03253,-0.0488 -0.03253,-0.08133 v -0.0976 c 0,-0.108437 0.03795,-0.195187 0.113861,-0.260251 0.08675,-0.07591 0.222297,-0.113858 0.406642,-0.113858 h 6.685186 c 0.357843,0 0.590984,0.108437 0.699421,0.325312 l 3.38326,6.52253 9.482875,-6.52253 c 0.31447,-0.216875 0.645206,-0.325312 0.992208,-0.325312 h 1.057265 c 0.140971,0 0.211457,0.05964 0.211457,0.178922 0,0.09759 -0.08675,0.216874 -0.260248,0.357843 z" />
      <path
         style="fill:#000000;stroke:#ffffff;stroke-width:0.81104534;stroke-miterlimit:4;stroke-dasharray:none"
         id="path10252-5-7-8-7-7-5"
         fill="#000000"
         d="m 41.370181,66.97665 c -0.563876,0 -1.062689,-0.08675 -1.496438,-0.260249 -0.433754,-0.184343 -0.797022,-0.43375 -1.089804,-0.748221 -0.292782,-0.31447 -0.515079,-0.683157 -0.66689,-1.106061 -0.15181,-0.433753 -0.227716,-0.900036 -0.227716,-1.398852 0,-0.639781 0.108438,-1.26872 0.325312,-1.886813 0.216875,-0.618096 0.515079,-1.209082 0.894613,-1.77296 0.390373,-0.563876 0.84581,-1.084377 1.366311,-1.561502 0.531344,-0.477127 1.106065,-0.889191 1.724161,-1.23619 0.628941,-0.347 1.290411,-0.618094 1.98441,-0.813283 0.694004,-0.206031 1.404272,-0.309046 2.130802,-0.309046 h 7.970171 c 0.574722,0 1.078957,0.08675 1.512713,0.260248 0.444592,0.173501 0.813278,0.417487 1.106061,0.731957 0.292783,0.303624 0.51508,0.666889 0.66689,1.089797 0.151816,0.422907 0.227725,0.883767 0.227725,1.38258 0,0.639784 -0.113861,1.274145 -0.34158,1.903083 -0.216879,0.618096 -0.520504,1.209083 -0.910879,1.772957 -0.390376,0.563875 -0.851238,1.089801 -1.382582,1.577772 -0.531345,0.477125 -1.111489,0.894609 -1.740427,1.252452 -0.628936,0.347001 -1.290407,0.62352 -1.984409,0.829551 -0.694,0.195189 -1.393426,0.29278 -2.098273,0.29278 z m 9.791928,-6.652657 c 0.357846,-0.759062 0.53677,-1.32836 0.53677,-1.707891 0,-0.31447 -0.113863,-0.531346 -0.341585,-0.650627 -0.216876,-0.119282 -0.542186,-0.178922 -0.975936,-0.178922 h -2.212131 c -0.314468,0 -0.607251,0.04337 -0.878348,0.130124 -0.260252,0.07591 -0.504235,0.211455 -0.731954,0.406641 -0.227719,0.195189 -0.450014,0.455441 -0.66689,0.780755 -0.206029,0.325312 -0.417481,0.731952 -0.634357,1.21992 l -0.780758,1.77296 c -0.412061,0.921721 -0.618092,1.615723 -0.618092,2.082006 0,0.314468 0.09217,0.542187 0.276514,0.683154 0.184348,0.130125 0.45002,0.195189 0.797017,0.195189 h 2.228398 c 0.336158,0 0.645207,-0.0488 0.927145,-0.146389 0.28194,-0.108439 0.553034,-0.276519 0.813284,-0.504238 0.260249,-0.227718 0.509656,-0.531344 0.748218,-0.910875 0.238564,-0.379532 0.482547,-0.845815 0.731954,-1.398847 z" />
      <path
         style="fill:#000000;stroke:#ffffff;stroke-width:0.81104534;stroke-miterlimit:4;stroke-dasharray:none"
         id="path10254-6-0-4-7-3-6"
         fill="#000000"
         d="m 56.65507,66.97665 c -0.195186,0 -0.29278,-0.06506 -0.29278,-0.195186 0,-0.06506 0.01627,-0.146391 0.0488,-0.243985 L 60.981733,56.30638 c 0.13013,-0.281938 0.336161,-0.422907 0.618101,-0.422907 h 5.595384 c 0.206031,0 0.309047,0.07048 0.309047,0.21145 0,0.06506 -0.0217,0.13555 -0.06506,0.211457 L 62.88482,66.537479 c -0.130128,0.292782 -0.336159,0.439171 -0.618099,0.439171 z" />
      <path
         style="fill:#000000;stroke:#ffffff;stroke-width:0.81104534;stroke-miterlimit:4;stroke-dasharray:none"
         id="path10256-2-9-5-1-6-9"
         fill="#000000"
         d="m 64.65244,66.97665 c -0.195188,0 -0.29278,-0.06506 -0.29278,-0.195186 0,-0.06506 0.01627,-0.146391 0.0488,-0.243985 L 68.979102,56.30638 c 0.130128,-0.281938 0.336162,-0.422907 0.618099,-0.422907 h 13.077592 c 0.563877,0 1.062688,0.08675 1.496438,0.260248 0.43375,0.173501 0.797015,0.417487 1.089798,0.731957 0.29278,0.303624 0.51508,0.666889 0.666895,1.089797 0.15181,0.422907 0.227717,0.883767 0.227717,1.38258 0,0.661472 -0.113859,1.312099 -0.341577,1.95188 -0.227719,0.628939 -0.54219,1.225347 -0.943412,1.789224 -0.390374,0.563875 -0.856655,1.084376 -1.398842,1.561502 -0.531346,0.477126 -1.111488,0.88919 -1.740429,1.236189 -0.618095,0.336158 -1.268722,0.601832 -1.951876,0.797017 -0.683162,0.195189 -1.366319,0.292783 -2.049476,0.292783 z m 14.151123,-6.652657 c 0.347001,-0.78075 0.520502,-1.350048 0.520502,-1.707891 0,-0.31447 -0.108437,-0.531346 -0.325311,-0.650627 -0.216876,-0.119282 -0.531347,-0.178922 -0.943411,-0.178922 h -3.301929 l -3.220601,7.270749 h 3.285665 c 0.325313,0 0.628938,-0.0488 0.910878,-0.146389 0.281937,-0.108439 0.547611,-0.276516 0.797015,-0.504238 0.260252,-0.238564 0.509659,-0.542186 0.748221,-0.910875 0.249406,-0.379532 0.498813,-0.845815 0.748217,-1.398847 z" />
    </g>
    <text
       transform="translate(307.73219,622.41114)"
       style="font-style:normal;font-weight:normal;font-size:4.23333px;line-height:1.05;font-family:sans-serif;white-space:pre;shape-inside:url(#rect10357-8-3-2-36-26-6-3);fill:#ffffff;fill-opacity:1;stroke:none;"
       id="text10355-7-5-8-1-1-1-3"
       xml:space="preserve"
       inkscape:export-xdpi="96"
       inkscape:export-ydpi="96"><tspan
         x="56.332031"
         y="213.65353"><tspan
           style="font-style:normal;font-variant:normal;font-weight:normal;font-stretch:normal;font-size:4.23333px;font-family:'Liberation Sans';-inkscape-font-specification:'Liberation Sans';fill:#ffffff;fill-opacity:1">Void is a general purpose operating system, based on </tspan></tspan><tspan
         x="56.332031"
         y="218.16621"><tspan
           style="font-style:normal;font-variant:normal;font-weight:normal;font-stretch:normal;font-size:4.23333px;font-family:'Liberation Sans';-inkscape-font-specification:'Liberation Sans';fill:#ffffff;fill-opacity:1">the monolithic Linux</tspan><tspan
           style="font-style:normal;font-variant:normal;font-weight:normal;font-stretch:normal;font-size:4.23333px;font-family:'Liberation Sans';-inkscape-font-specification:'Liberation Sans';fill:#ffffff;fill-opacity:1">®</tspan><tspan
           style="font-style:normal;font-variant:normal;font-weight:normal;font-stretch:normal;font-size:4.23333px;font-family:'Liberation Sans';-inkscape-font-specification:'Liberation Sans';fill:#ffffff;fill-opacity:1"> kernel. Its package system </tspan></tspan><tspan
         x="56.332031"
         y="222.67889"><tspan
           style="font-style:normal;font-variant:normal;font-weight:normal;font-stretch:normal;font-size:4.23333px;font-family:'Liberation Sans';-inkscape-font-specification:'Liberation Sans';fill:#ffffff;fill-opacity:1">allows you to quickly install, update and remove </tspan></tspan><tspan
         x="56.332031"
         y="227.19157"><tspan
           style="font-style:normal;font-variant:normal;font-weight:normal;font-stretch:normal;font-size:4.23333px;font-family:'Liberation Sans';-inkscape-font-specification:'Liberation Sans';fill:#ffffff;fill-opacity:1">software; software is provided in binary packages or </tspan></tspan><tspan
         x="56.332031"
         y="231.70425"><tspan
           style="font-style:normal;font-variant:normal;font-weight:normal;font-stretch:normal;font-size:4.23333px;font-family:'Liberation Sans';-inkscape-font-specification:'Liberation Sans';fill:#ffffff;fill-opacity:1">can be built directly from sources with the help of the </tspan></tspan><tspan
         x="56.332031"
         y="236.21693"><tspan
           style="font-style:normal;font-variant:normal;font-weight:normal;font-stretch:normal;font-size:4.23333px;font-family:'Liberation Sans';-inkscape-font-specification:'Liberation Sans';fill:#ffffff;fill-opacity:1">XBPS source packages collection. </tspan></tspan></text>
    <rect
       style="fill:#1a1a1a;stroke-width:0.264583"
       id="rect10310-7-6-1-2-2-2"
       width="215.89012"
       height="279.39011"
       x="36.741585"
       y="596.28699"
       inkscape:export-xdpi="96"
       inkscape:export-ydpi="96" />
    <text
       transform="translate(0.40772404,630.21695)"
       style="font-style:normal;font-weight:normal;font-size:6.35px;line-height:1.25;font-family:sans-serif;white-space:pre;shape-inside:url(#rect10357-8-3-9-7-3-1-7);fill:#ffffff;fill-opacity:1;stroke:none;"
       id="text10355-7-5-1-0-3-0-5"
       xml:space="preserve"
       inkscape:export-xdpi="96"
       inkscape:export-ydpi="96"><tspan
         x="56.332031"
         y="215.98346"><tspan
           style="font-style:normal;font-variant:normal;font-weight:normal;font-stretch:normal;font-size:6.35px;font-family:'Liberation Sans';-inkscape-font-specification:'Liberation Sans';fill:#ffffff">Void Handbook</tspan></tspan></text>
    <path
       style="fill:none;stroke:#ffffff;stroke-width:0.499999;stroke-linecap:butt;stroke-linejoin:miter;stroke-miterlimit:4;stroke-dasharray:none;stroke-opacity:1"
       d="M 103.6142,863.44803 V 829.05564"
       id="path10481-3-2-6-7-6-4"
       inkscape:export-xdpi="96"
       inkscape:export-ydpi="96" />
    <text
       xml:space="preserve"
       id="text10355-7-2-5-9-1-5-1-7"
       style="font-style:normal;font-weight:normal;font-size:26.4583px;line-height:1.25;font-family:sans-serif;white-space:pre;shape-inside:url(#rect10357-8-9-6-7-2-5-6-4);fill:#ffffff;fill-opacity:1;stroke:none;"
       transform="translate(29.065484,423.67684)"
       x="57.931183"
       y="0"
       inkscape:export-xdpi="96"
       inkscape:export-ydpi="96"><tspan
         x="79.807092"
         y="233.67307"><tspan
           style="font-style:normal;font-variant:normal;font-weight:bold;font-stretch:normal;font-size:21.5194px;font-family:'Liberation Sans';-inkscape-font-specification:'Liberation Sans Bold';text-align:center;text-anchor:middle;fill:#ffffff">ENTER
</tspan></tspan><tspan
         x="94.754038"
         y="266.74594"><tspan
           style="font-style:normal;font-variant:normal;font-weight:bold;font-stretch:normal;font-size:21.5194px;font-family:'Liberation Sans';-inkscape-font-specification:'Liberation Sans Bold';text-align:center;text-anchor:middle;fill:#ffffff">THE</tspan></tspan></text>
    <g
       transform="matrix(0.98638135,0,0,0.98638135,94.214664,674.33757)"
       id="g10308-3-6-3-59-9-5-4"
       inkscape:export-xdpi="96"
       inkscape:export-ydpi="96">
      <path
         d="m 52.393726,33.628591 c -5.829269,0.01238 -11.507642,1.854006 -16.234586,5.265253 l 6.324252,6.324251 c 2.983825,-1.825253 6.412518,-2.793929 9.910334,-2.799877 10.523116,-2.1e-5 19.053793,8.530655 19.053772,19.053773 -0.0084,3.49657 -0.978842,6.923403 -2.804983,9.905228 l 6.336239,6.336239 c 3.410162,-4.729679 5.249439,-10.4106 5.258374,-16.241467 0,-15.377484 -12.46592,-27.8434 -27.843402,-27.8434 z"
         fill="#abc2ab"
         id="path10244-6-2-1-49-2-5-4"
         style="stroke:#ffffff;stroke-width:0.811045;stroke-miterlimit:4;stroke-dasharray:none" />
      <path
         d="m 68.62831,84.050138 -6.324253,-6.32425 c -2.983826,1.825252 -6.412519,2.793931 -9.910331,2.799876 -10.523119,2.1e-5 -19.053795,-8.530656 -19.053774,-19.053773 0.0084,-3.49657 0.978838,-6.923404 2.804983,-9.905227 l -6.336242,-6.336238 c -3.410166,4.729675 -5.249434,10.410598 -5.258368,16.241465 0,15.377483 12.465916,27.843401 27.843401,27.843401 5.829268,-0.01238 11.507639,-1.854005 16.234584,-5.265254 z"
         fill="#478061"
         id="path10246-7-9-9-0-2-4-3"
         style="stroke:#ffffff;stroke-width:0.811045;stroke-miterlimit:4;stroke-dasharray:none" />
      <circle
         fill="#abc2ab"
         cx="52.389275"
         cy="61.471992"
         r="8.8644295"
         id="circle10248-5-1-4-9-8-7-0"
         style="stroke:#ffffff;stroke-width:0.811045;stroke-miterlimit:4;stroke-dasharray:none" />
      <path
         d="m 26.61672,66.65134 c -0.303627,0.216873 -0.580143,0.32531 -0.829549,0.32531 h -1.073535 c -0.151813,0 -0.271094,-0.02711 -0.357844,-0.08133 -0.08675,-0.05422 -0.157233,-0.135549 -0.211453,-0.243985 L 18.646546,56.436504 c -0.02169,-0.02169 -0.03253,-0.0488 -0.03253,-0.08133 v -0.0976 c 0,-0.108437 0.03795,-0.195187 0.113861,-0.260251 0.08675,-0.07591 0.222297,-0.113858 0.406642,-0.113858 h 6.685186 c 0.357843,0 0.590984,0.108437 0.699421,0.325312 l 3.38326,6.52253 9.482875,-6.52253 c 0.31447,-0.216875 0.645206,-0.325312 0.992208,-0.325312 h 1.057265 c 0.140971,0 0.211457,0.05964 0.211457,0.178922 0,0.09759 -0.08675,0.216874 -0.260248,0.357843 z"
         fill="#000000"
         id="path10250-3-2-7-1-9-6-7"
         style="fill:#000000;stroke:#ffffff;stroke-width:0.811045;stroke-miterlimit:4;stroke-dasharray:none" />
      <path
         d="m 41.370181,66.97665 c -0.563876,0 -1.062689,-0.08675 -1.496438,-0.260249 -0.433754,-0.184343 -0.797022,-0.43375 -1.089804,-0.748221 -0.292782,-0.31447 -0.515079,-0.683157 -0.66689,-1.106061 -0.15181,-0.433753 -0.227716,-0.900036 -0.227716,-1.398852 0,-0.639781 0.108438,-1.26872 0.325312,-1.886813 0.216875,-0.618096 0.515079,-1.209082 0.894613,-1.77296 0.390373,-0.563876 0.84581,-1.084377 1.366311,-1.561502 0.531344,-0.477127 1.106065,-0.889191 1.724161,-1.23619 0.628941,-0.347 1.290411,-0.618094 1.98441,-0.813283 0.694004,-0.206031 1.404272,-0.309046 2.130802,-0.309046 h 7.970171 c 0.574722,0 1.078957,0.08675 1.512713,0.260248 0.444592,0.173501 0.813278,0.417487 1.106061,0.731957 0.292783,0.303624 0.51508,0.666889 0.66689,1.089797 0.151816,0.422907 0.227725,0.883767 0.227725,1.38258 0,0.639784 -0.113861,1.274145 -0.34158,1.903083 -0.216879,0.618096 -0.520504,1.209083 -0.910879,1.772957 -0.390376,0.563875 -0.851238,1.089801 -1.382582,1.577772 -0.531345,0.477125 -1.111489,0.894609 -1.740427,1.252452 -0.628936,0.347001 -1.290407,0.62352 -1.984409,0.829551 -0.694,0.195189 -1.393426,0.29278 -2.098273,0.29278 z m 9.791928,-6.652657 c 0.357846,-0.759062 0.53677,-1.32836 0.53677,-1.707891 0,-0.31447 -0.113863,-0.531346 -0.341585,-0.650627 -0.216876,-0.119282 -0.542186,-0.178922 -0.975936,-0.178922 h -2.212131 c -0.314468,0 -0.607251,0.04337 -0.878348,0.130124 -0.260252,0.07591 -0.504235,0.211455 -0.731954,0.406641 -0.227719,0.195189 -0.450014,0.455441 -0.66689,0.780755 -0.206029,0.325312 -0.417481,0.731952 -0.634357,1.21992 l -0.780758,1.77296 c -0.412061,0.921721 -0.618092,1.615723 -0.618092,2.082006 0,0.314468 0.09217,0.542187 0.276514,0.683154 0.184348,0.130125 0.45002,0.195189 0.797017,0.195189 h 2.228398 c 0.336158,0 0.645207,-0.0488 0.927145,-0.146389 0.28194,-0.108439 0.553034,-0.276519 0.813284,-0.504238 0.260249,-0.227718 0.509656,-0.531344 0.748218,-0.910875 0.238564,-0.379532 0.482547,-0.845815 0.731954,-1.398847 z"
         fill="#000000"
         id="path10252-5-7-8-7-7-5-8"
         style="fill:#000000;stroke:#ffffff;stroke-width:0.811045;stroke-miterlimit:4;stroke-dasharray:none" />
      <path
         d="m 56.65507,66.97665 c -0.195186,0 -0.29278,-0.06506 -0.29278,-0.195186 0,-0.06506 0.01627,-0.146391 0.0488,-0.243985 L 60.981733,56.30638 c 0.13013,-0.281938 0.336161,-0.422907 0.618101,-0.422907 h 5.595384 c 0.206031,0 0.309047,0.07048 0.309047,0.21145 0,0.06506 -0.0217,0.13555 -0.06506,0.211457 L 62.88482,66.537479 c -0.130128,0.292782 -0.336159,0.439171 -0.618099,0.439171 z"
         fill="#000000"
         id="path10254-6-0-4-7-3-6-6"
         style="fill:#000000;stroke:#ffffff;stroke-width:0.811045;stroke-miterlimit:4;stroke-dasharray:none" />
      <path
         d="m 64.65244,66.97665 c -0.195188,0 -0.29278,-0.06506 -0.29278,-0.195186 0,-0.06506 0.01627,-0.146391 0.0488,-0.243985 L 68.979102,56.30638 c 0.130128,-0.281938 0.336162,-0.422907 0.618099,-0.422907 h 13.077592 c 0.563877,0 1.062688,0.08675 1.496438,0.260248 0.43375,0.173501 0.797015,0.417487 1.089798,0.731957 0.29278,0.303624 0.51508,0.666889 0.666895,1.089797 0.15181,0.422907 0.227717,0.883767 0.227717,1.38258 0,0.661472 -0.113859,1.312099 -0.341577,1.95188 -0.227719,0.628939 -0.54219,1.225347 -0.943412,1.789224 -0.390374,0.563875 -0.856655,1.084376 -1.398842,1.561502 -0.531346,0.477126 -1.111488,0.88919 -1.740429,1.236189 -0.618095,0.336158 -1.268722,0.601832 -1.951876,0.797017 -0.683162,0.195189 -1.366319,0.292783 -2.049476,0.292783 z m 14.151123,-6.652657 c 0.347001,-0.78075 0.520502,-1.350048 0.520502,-1.707891 0,-0.31447 -0.108437,-0.531346 -0.325311,-0.650627 -0.216876,-0.119282 -0.531347,-0.178922 -0.943411,-0.178922 h -3.301929 l -3.220601,7.270749 h 3.285665 c 0.325313,0 0.628938,-0.0488 0.910878,-0.146389 0.281937,-0.108439 0.547611,-0.276516 0.797015,-0.504238 0.260252,-0.238564 0.509659,-0.542186 0.748221,-0.910875 0.249406,-0.379532 0.498813,-0.845815 0.748217,-1.398847 z"
         fill="#000000"
         id="path10256-2-9-5-1-6-9-8"
         style="fill:#000000;stroke:#ffffff;stroke-width:0.811045;stroke-miterlimit:4;stroke-dasharray:none" />
    </g>
    <text
       inkscape:export-ydpi="96"
       inkscape:export-xdpi="96"
       xml:space="preserve"
       id="text10355-7-5-8-1-1-1-3-8"
       style="font-style:normal;font-weight:normal;font-size:4.23333px;line-height:1.05;font-family:sans-serif;white-space:pre;shape-inside:url(#rect10357-8-3-2-36-26-6-3-5);fill:#ffffff;fill-opacity:1;stroke:none;"
       transform="translate(51.217754,622.41113)"><tspan
         x="56.332031"
         y="213.65353"><tspan
           style="font-style:normal;font-variant:normal;font-weight:normal;font-stretch:normal;font-size:4.23333px;font-family:'Liberation Sans';-inkscape-font-specification:'Liberation Sans';fill:#ffffff;fill-opacity:1">Void is a general purpose operating system, based on </tspan></tspan><tspan
         x="56.332031"
         y="218.16621"><tspan
           style="font-style:normal;font-variant:normal;font-weight:normal;font-stretch:normal;font-size:4.23333px;font-family:'Liberation Sans';-inkscape-font-specification:'Liberation Sans';fill:#ffffff;fill-opacity:1">the monolithic Linux</tspan><tspan
           style="font-style:normal;font-variant:normal;font-weight:normal;font-stretch:normal;font-size:4.23333px;font-family:'Liberation Sans';-inkscape-font-specification:'Liberation Sans';fill:#ffffff;fill-opacity:1">®</tspan><tspan
           style="font-style:normal;font-variant:normal;font-weight:normal;font-stretch:normal;font-size:4.23333px;font-family:'Liberation Sans';-inkscape-font-specification:'Liberation Sans';fill:#ffffff;fill-opacity:1"> kernel. Its package system </tspan></tspan><tspan
         x="56.332031"
         y="222.67889"><tspan
           style="font-style:normal;font-variant:normal;font-weight:normal;font-stretch:normal;font-size:4.23333px;font-family:'Liberation Sans';-inkscape-font-specification:'Liberation Sans';fill:#ffffff;fill-opacity:1">allows you to quickly install, update and remove </tspan></tspan><tspan
         x="56.332031"
         y="227.19157"><tspan
           style="font-style:normal;font-variant:normal;font-weight:normal;font-stretch:normal;font-size:4.23333px;font-family:'Liberation Sans';-inkscape-font-specification:'Liberation Sans';fill:#ffffff;fill-opacity:1">software; software is provided in binary packages or </tspan></tspan><tspan
         x="56.332031"
         y="231.70425"><tspan
           style="font-style:normal;font-variant:normal;font-weight:normal;font-stretch:normal;font-size:4.23333px;font-family:'Liberation Sans';-inkscape-font-specification:'Liberation Sans';fill:#ffffff;fill-opacity:1">can be built directly from sources with the help of the </tspan></tspan><tspan
         x="56.332031"
         y="236.21693"><tspan
           style="font-style:normal;font-variant:normal;font-weight:normal;font-stretch:normal;font-size:4.23333px;font-family:'Liberation Sans';-inkscape-font-specification:'Liberation Sans';fill:#ffffff;fill-opacity:1">XBPS source packages collection. </tspan></tspan></text>
  </g>
</svg>
